<?xml version="1.0" encoding="utf-8"?>
<!-- Generator: Adobe Illustrator 19.0.0, SVG Export Plug-In . SVG Version: 6.00 Build 0)  -->
<svg version="1.1" id="OBJECTS" xmlns="http://www.w3.org/2000/svg" xmlns:xlink="http://www.w3.org/1999/xlink" x="0px" y="0px"
	 viewBox="0 0 500 500" style="enable-background:new 0 0 500 500;" xml:space="preserve">
<style type="text/css">
	.st0{clip-path:url(#SVGID_2_);}
	.st1{opacity:0.25;clip-path:url(#XMLID_224_);}
	.st2{fill:#FFFFFF;}
	.st3{opacity:0.25;clip-path:url(#XMLID_224_);fill:#FFFFFF;}
	.st4{clip-path:url(#XMLID_224_);fill:#FFFFFF;}
	.st5{opacity:0.2;fill:#FFFFFF;}
	.st6{opacity:0.43;fill:#FFFFFF;}
	.st7{fill:#1C88C6;}
	.st8{fill:#D81F32;}
	.st9{fill:#FF59C1;}
	.st10{opacity:0.16;clip-path:url(#XMLID_225_);fill:#D68085;}
	.st11{opacity:0.23;clip-path:url(#XMLID_226_);fill:#D68085;}
	.st12{fill:#EA98A1;}
	.st13{fill:#2A229E;}
	.st14{opacity:0.27;clip-path:url(#XMLID_227_);fill:#C8E6FF;}
	.st15{fill:none;stroke:#FFFFFF;stroke-width:0.4862;stroke-miterlimit:10;}
	.st16{fill:#FCA9AA;}
	.st17{fill:#FCC3CB;}
	.st18{opacity:0.11;fill:#2A229E;}
	.st19{clip-path:url(#XMLID_228_);}
	.st20{opacity:0.5;clip-path:url(#XMLID_229_);fill:#3EA1DE;}
	.st21{clip-path:url(#XMLID_228_);fill:#FCC3CB;}
	.st22{clip-path:url(#XMLID_228_);fill:#3EA1DE;}
	.st23{opacity:0.47;clip-path:url(#XMLID_230_);fill:#6FBCFF;}
	.st24{clip-path:url(#XMLID_228_);fill:#F8FDFF;}
	.st25{clip-path:url(#XMLID_228_);fill:#FFC6BA;}
	.st26{clip-path:url(#XMLID_228_);fill:#1C88C6;}
	.st27{fill:#FFC6BA;}
	.st28{opacity:0.47;clip-path:url(#XMLID_228_);fill:#6FBCFF;}
	.st29{clip-path:url(#XMLID_228_);fill:#D81F32;}
	.st30{clip-path:url(#XMLID_228_);fill:none;stroke:#453E6B;stroke-width:0.8094;stroke-miterlimit:10;}
	.st31{clip-path:url(#XMLID_231_);fill:#FF59C1;}
	.st32{clip-path:url(#XMLID_231_);fill:#D81F32;}
	.st33{clip-path:url(#XMLID_232_);fill:#FF59C1;}
	.st34{clip-path:url(#XMLID_232_);fill:#D81F32;}
</style>
<g id="XMLID_1_">
	<defs>
		<rect id="SVGID_1_" width="500" height="500"/>
	</defs>
	<clipPath id="SVGID_2_">
		<use xlink:href="#SVGID_1_"  style="overflow:visible;"/>
	</clipPath>
	<g id="XMLID_2_" class="st0">
		<g id="XMLID_3_">
			<defs>
				<circle id="XMLID_6_" cx="250.6" cy="262.2" r="200.1"/>
			</defs>
			<use xlink:href="#XMLID_6_"  style="overflow:visible;fill:#C8E6FF;"/>
			<clipPath id="XMLID_224_">
				<use xlink:href="#XMLID_6_"  style="overflow:visible;"/>
			</clipPath>
			<g id="XMLID_4_" class="st1">
				<path class="st2" d="M511.1,112l-8.9-11.5c-7.4,5.7-16.8,10.1-26.5,13.5L373,83.9c-5.4-8.3-9.9-17.1-12.3-25.8l-14.1,3.8
					c7.1,26.5,30.2,52.4,44,66c-27.3,5.1-64.7,18.4-79.9,52.8c-18.1,41,16.4,80.6,38.2,100.4c-44.8,3.8-77.2,24.7-89,57.6
					c-10.4,29.1-1.7,62.4,22.2,84.7c3.4,3.1,6.5,6.3,9.6,9.5c-35.6,8.8-58.8,20.2-60.2,20.8l6.5,13.1c0.2-0.1,6.2-3,16.6-7
					l76.7,21.5c11.3,16.6,17.1,28.1,17.2,28.3l13.1-6.5c-0.4-0.8-5-10-13.9-23.7l0.3-1.1l-1.3-0.4c-6.7-10.2-15.8-22.8-27.1-36.1
					c7.5-1.3,15.3-2.4,23.5-3.3c10.4-1.1,20.3-3.9,29.2-8.3c18.9-9.4,33.5-25.6,39.8-45.6c9.6-30.3-0.3-63-27.2-91.4
					c29.7-4.3,70.2-17.1,79.3-55.3c3.8-16.1,1.8-31.5-3.2-45.4l0.6-2.1l-1.6-0.5c-8.5-21.7-24-39.7-35.5-51
					C435.8,138.2,483.4,133.3,511.1,112z M342.8,163.2l102.7,30.2c4.3,10.1,6.8,20.9,6,32.1l-127.8-38.2c0.1-0.2,0.2-0.5,0.3-0.7
					C328.3,176.9,335,169.3,342.8,163.2z M324.7,471.8l-58.2-16.3c10.1-3.4,22.6-7.1,36.7-10.3C311.5,454.5,318.6,463.5,324.7,471.8
					z M341.7,424.1c-11.8,1.2-22.9,2.9-33.3,5c-5.1-5.4-10.5-10.9-16.3-16.3c-10.3-9.6-17.1-21.7-20.1-34.4l105.9,31.1
					C367.9,417.5,355.4,422.7,341.7,424.1z M398.2,380.3c-2.8,8.9-7.7,16.9-14.1,23.5l-113.6-33.4c-0.9-9,0-18.1,3.1-26.8
					c3.3-9.3,8.8-17.5,16.1-24.4l110.6,32.5C401.8,361.4,401.2,371,398.2,380.3z M398.5,343.6l-102.1-30
					c14.2-10.4,33.4-16.8,56.4-18.3c1.5,0,6.3,0.1,13.1-0.2C382.8,310.3,393.9,326.9,398.5,343.6z M370.6,280.2
					c-8.2-6.3-33.6-27.2-44.9-52.4l107.8,32.2C415.6,274.2,388.3,278.8,370.6,280.2z M439.7,254.2l-117.2-35
					c-2.4-8.1-3.1-16.5-1.1-25l129,38.5c-0.1,0.6-0.1,1.3-0.3,1.9C448.3,242.4,444.6,248.8,439.7,254.2z M350.5,157.8
					c17.8-10.9,39.3-15.4,54.1-17.3c7.4,6.3,25.2,22.8,36.7,44L350.5,157.8z M409.1,125.3c-3.8-3.4-17.3-15.9-29.4-31.8l83.2,24.3
					c-21.5,5.6-41,6.8-41.1,6.8C421,124.6,416.3,124.7,409.1,125.3z"/>
				
					<rect x="332.5" y="296.8" transform="matrix(0.2817 -0.9595 0.9595 0.2817 -105.1818 582.0508)" class="st2" width="7.3" height="128.9"/>
			</g>
			<circle class="st3" cx="258.9" cy="149.2" r="3.5"/>
			<circle class="st3" cx="172.2" cy="167.3" r="8.1"/>
			<circle class="st3" cx="448.7" cy="286.2" r="8.1"/>
			<circle class="st3" cx="162.1" cy="105.9" r="7"/>
			<circle class="st3" cx="391.6" cy="383.2" r="4.7"/>
			<circle class="st3" cx="486.2" cy="139.2" r="9.3"/>
			<circle class="st3" cx="243.3" cy="85" r="4.7"/>
			<circle class="st4" cx="282.8" cy="425.2" r="4.7"/>
			<circle class="st3" cx="266.2" cy="329.1" r="3.5"/>
			<circle class="st3" cx="446.3" cy="221.2" r="4.7"/>
			<circle class="st3" cx="413.6" cy="333.4" r="7"/>
			<circle class="st3" cx="495.8" cy="342" r="4.7"/>
			<g id="XMLID_5_" class="st1">
				<path class="st2" d="M73,184.3l-7.5,0.1c0,4.9-1.1,10.1-2.8,15.1l-44.5,32.9c-5.1-0.4-10.1-1.3-14.5-3.1l-2.9,7
					c13.2,5.4,31,4,40.9,2.6c-6.4,12.8-12.7,32.4-3.3,49.4c11.2,20.3,38.3,18.5,53.3,15.7c-12.5,19.7-14,39.5-4.2,54.7
					c8.7,13.4,25.1,20.2,41.8,17.4c2.3-0.4,4.6-0.7,6.9-1c-7.5,17.4-10.1,30.5-10.3,31.3l7.4,1.4c0-0.1,0.7-3.5,2.3-9l32.9-24.9
					c10.4,0.5,16.9,1.8,17.1,1.8l1.4-7.4c-0.5-0.1-5.7-1.1-14.1-1.7l-0.3-0.5l-0.5,0.4c-6.3-0.4-14.3-0.6-23.4-0.2
					c1.8-3.5,3.8-7.1,6-10.7c2.8-4.6,4.7-9.6,5.7-14.6c2.1-10.7,0-21.8-6.3-30.7c-9.5-13.5-26-19.6-46.1-17.4
					c7.5-13.6,14.9-34.3,2.1-50c-5.4-6.6-12.4-10.6-19.7-12.9l-0.7-0.9l-0.7,0.5c-11.6-3.3-23.9-2.6-32.1-1.4
					C60.2,223.5,73.1,202.4,73,184.3z M41.4,269.6L86,236.8c5.5,1.4,10.8,3.7,15.1,7.6L45.3,285c-0.1-0.1-0.1-0.2-0.2-0.3
					C42.5,279.9,41.4,274.7,41.4,269.6z M162.7,373.8l-25,18.9c1.8-5.3,4.1-11.5,7.3-18.4C151.5,373.8,157.4,373.7,162.7,373.8z
					 M148.4,351.8c-3.2,5.2-6,10.4-8.4,15.3c-3.8,0.4-7.8,0.9-11.8,1.6c-7.2,1.2-14.3,0.2-20.4-2.5l46-33.8
					C153.9,339,152.1,345.7,148.4,351.8z M148.1,314.8c2.8,4,4.5,8.5,5.3,13.2L104,364.3c-4-2.4-7.5-5.7-10.1-9.7
					c-2.8-4.3-4.4-9.1-5-14.3l48-35.3C141.4,307.4,145.2,310.7,148.1,314.8z M133.1,303.2l-44.3,32.6c0.2-9.1,3.6-19,10.1-28.9
					c0.5-0.6,2-2.6,4-5.4C114.5,299.2,124.8,299.9,133.1,303.2z M98.2,294.8c-5.2,1.4-21.7,5.3-35.6,2l47-34.3
					C109.9,274.4,103.2,287.1,98.2,294.8z M109.2,258.2l-51.1,37.3c-4.1-1.6-7.8-3.9-10.6-7.4l56.3-41c0.2,0.3,0.5,0.5,0.7,0.7
					C107,251,108.5,254.5,109.2,258.2z M41.6,264.8c1.1-10.7,6-21,9.8-27.7c4.9-1.1,17.3-3.2,29.6-1.3L41.6,264.8z M46.5,230.5
					c-2.6,0.5-12,2.2-22.3,2.1l36.1-26.6c-4.4,10.6-10,19-10.1,19.1C50,225.3,48.5,227.3,46.5,230.5z"/>
				
					<rect x="118.9" y="301.1" transform="matrix(-0.5929 -0.8053 0.8053 -0.5929 -76.8021 629.9784)" class="st2" width="3.8" height="66.7"/>
			</g>
			<circle class="st4" cx="94.4" cy="413.5" r="6.1"/>
			<circle class="st3" cx="159.4" cy="260.8" r="6.1"/>
			<circle class="st3" cx="26" cy="354" r="5.2"/>
			<circle class="st3" cx="191.1" cy="338.3" r="3.5"/>
			<circle class="st3" cx="89.3" cy="172.4" r="6.9"/>
			<circle class="st3" cx="46.9" cy="336.9" r="3.5"/>
			<circle class="st4" cx="167" cy="421.6" r="3.5"/>
			<circle class="st3" cx="102.6" cy="388.2" r="2.6"/>
			<circle class="st3" cx="119.9" cy="232.9" r="3.5"/>
			<circle class="st3" cx="171.6" cy="302.8" r="5.2"/>
			<circle class="st3" cx="213.7" cy="258.1" r="3.5"/>
		</g>
		<circle class="st5" cx="172.2" cy="78.6" r="39.1"/>
		<circle class="st6" cx="172.2" cy="78.6" r="46.9"/>
		<g id="XMLID_7_">
			<path id="XMLID_8_" class="st7" d="M172.2,118.1c-21.8,0-39.6-17.7-39.6-39.6c0-21.8,17.7-39.6,39.6-39.6
				c21.8,0,39.6,17.7,39.6,39.6C211.8,100.4,194,118.1,172.2,118.1z M172.2,39.9c-21.3,0-38.7,17.4-38.7,38.7
				c0,21.3,17.4,38.7,38.7,38.7s38.7-17.4,38.7-38.7C210.9,57.2,193.5,39.9,172.2,39.9z"/>
		</g>
		<circle class="st5" cx="434.6" cy="218" r="39.1"/>
		<circle class="st6" cx="434.6" cy="218" r="46.8"/>
		<g id="XMLID_11_">
			<path id="XMLID_12_" class="st7" d="M434.6,257.5c-21.8,0-39.5-17.7-39.5-39.5s17.7-39.5,39.5-39.5c21.8,0,39.5,17.7,39.5,39.5
				S456.4,257.5,434.6,257.5z M434.6,179.3c-21.3,0-38.6,17.3-38.6,38.6c0,21.3,17.3,38.6,38.6,38.6c21.3,0,38.6-17.3,38.6-38.6
				C473.2,196.7,455.9,179.3,434.6,179.3z"/>
		</g>
		<circle class="st5" cx="349" cy="93" r="41.9"/>
		<circle class="st6" cx="349" cy="93" r="50.2"/>
		<g id="XMLID_15_">
			<path id="XMLID_16_" class="st7" d="M349,135.3c-23.4,0-42.4-19-42.4-42.4c0-23.4,19-42.4,42.4-42.4c23.4,0,42.4,19,42.4,42.4
				C391.4,116.3,372.4,135.3,349,135.3z M349,51.5c-22.8,0-41.4,18.6-41.4,41.4s18.6,41.4,41.4,41.4s41.4-18.6,41.4-41.4
				S371.9,51.5,349,51.5z"/>
		</g>
		<g id="XMLID_19_">
			<path class="st8" d="M179.9,92.3c4.1,2.7,9.7,1.6,12.4-2.5c2.7-4.1,1.6-9.7-2.5-12.4l-12.2-8.1l-9.9,15L179.9,92.3z"/>
			<path class="st8" d="M175.8,68.1L163.7,60c-4.1-2.7-9.7-1.6-12.4,2.5c-2.7,4.1-1.6,9.7,2.5,12.4l12.2,8.1L175.8,68.1z
				 M158.7,61.4c0.5-0.8,1.6-1,2.3-0.5c0.8,0.5,1,1.6,0.5,2.3c-0.5,0.8-1.6,1-2.3,0.5C158.4,63.2,158.2,62.2,158.7,61.4z
				 M168.4,69.2c0.5-0.8,1.6-1,2.3-0.5c0.8,0.5,1,1.6,0.5,2.3c-0.5,0.8-1.6,1-2.3,0.5C168.1,71,167.8,69.9,168.4,69.2z M160.9,68.3
				c0.5-0.8,1.6-1,2.3-0.5c0.8,0.5,1,1.6,0.5,2.3c-0.5,0.8-1.6,1-2.3,0.5C160.6,70.1,160.4,69,160.9,68.3z M152.8,68.3
				c0.5-0.8,1.6-1,2.3-0.5c0.8,0.5,1,1.6,0.5,2.3c-0.5,0.8-1.6,1-2.3,0.5C152.5,70.1,152.3,69.1,152.8,68.3z M162.1,74.5
				c0.5-0.8,1.6-1,2.3-0.5c0.8,0.5,1,1.6,0.5,2.3c-0.5,0.8-1.6,1-2.3,0.5C161.8,76.3,161.6,75.3,162.1,74.5z"/>
		</g>
		<g id="XMLID_20_">
			<circle class="st5" cx="84.9" cy="363.9" r="35.9"/>
			<circle class="st6" cx="84.9" cy="363.9" r="43"/>
			<g id="XMLID_21_">
				<path id="XMLID_22_" class="st7" d="M84.9,400.2c-20,0-36.3-16.3-36.3-36.3c0-20,16.3-36.3,36.3-36.3c20,0,36.3,16.3,36.3,36.3
					C121.2,383.9,104.9,400.2,84.9,400.2z M84.9,328.4c-19.6,0-35.5,15.9-35.5,35.5c0,19.6,15.9,35.5,35.5,35.5s35.5-15.9,35.5-35.5
					C120.4,344.3,104.5,328.4,84.9,328.4z"/>
			</g>
			<g id="XMLID_25_">
				<g id="XMLID_26_">
					<polygon class="st9" points="64.2,381.6 64.2,381.6 70.1,376.5 70.5,377.1 					"/>
					<path class="st8" d="M87.4,369.4l-1.6,1.2l-5.5-7.3l0.9-0.7l8.6-6.5l5.5,7.3l-7.5,5.6l0.9,0.9l8.4-6.4l-6.8-9l-19.6,14.8
						l-1.7,8.3l8.4,0.7l11.1-8.4C88.4,369.9,87.9,369.7,87.4,369.4z"/>
					<path class="st8" d="M84.7,365.9l-3.4-3.3l-0.9,0.7l5.5,7.3l1.6-1.2C86.4,368.7,85.2,367.6,84.7,365.9z"/>
					<path class="st9" d="M87.4,369.4c0.5,0.3,0.9,0.5,1.3,0.6l0.1-0.1l-0.9-0.9L87.4,369.4z"/>
					<path class="st8" d="M84.6,365.4c-0.6-3.1-3.3-2.8-3.3-2.8l3.4,3.3C84.7,365.7,84.6,365.5,84.6,365.4z"/>
				</g>
				<path class="st8" d="M97.1,364.5l-7.6-10.1c-0.2-0.3-0.2-0.8,0.1-1v0c0.3-0.2,0.8-0.2,1,0.1l7.6,10.1c0.2,0.3,0.2,0.8-0.1,1l0,0
					C97.8,364.8,97.4,364.8,97.1,364.5z"/>
				<path class="st8" d="M105,358.5l-7.6-10.1c-0.2-0.3-0.2-0.8,0.1-1l0,0c0.3-0.2,0.8-0.2,1,0.1l7.6,10.1c0.2,0.3,0.2,0.8-0.1,1
					l0,0C105.7,358.9,105.2,358.9,105,358.5z"/>
				
					<rect id="XMLID_212_" x="95.9" y="351.4" transform="matrix(0.6026 0.7981 -0.7981 0.6026 322.9028 62.8327)" class="st8" width="4.9" height="8.4"/>
			</g>
		</g>
		<g id="XMLID_27_">
			<circle class="st5" cx="66.3" cy="189.9" r="39.1"/>
			<circle class="st6" cx="66.3" cy="189.9" r="46.8"/>
			<g id="XMLID_28_">
				<path id="XMLID_29_" class="st7" d="M66.3,229.4c-21.8,0-39.5-17.7-39.5-39.5s17.7-39.5,39.5-39.5c21.8,0,39.5,17.7,39.5,39.5
					S88.1,229.4,66.3,229.4z M66.3,151.3c-21.3,0-38.6,17.3-38.6,38.6s17.3,38.6,38.6,38.6c21.3,0,38.6-17.3,38.6-38.6
					S87.6,151.3,66.3,151.3z"/>
			</g>
			<g id="XMLID_32_">
				<polygon id="XMLID_33_" class="st8" points="69.2,189 66.3,189 66.3,186.2 63.4,186.2 63.4,189 60.5,189 60.5,191.9 63.4,191.9 
					63.4,194.8 66.3,194.8 66.3,191.9 69.2,191.9 				"/>
				<path id="XMLID_34_" class="st8" d="M81.8,177.5H49.6c-1.8,0-3.3,1.5-3.3,3.3V201c0,1.8,1.5,3.3,3.3,3.3h32.2
					c1.8,0,3.3-1.5,3.3-3.3v-20.1C85.2,179,83.7,177.5,81.8,177.5z M65.3,197.4c-3.8,0-6.9-3.1-6.9-6.9c0-3.8,3.1-6.9,6.9-6.9
					c3.8,0,6.9,3.1,6.9,6.9C72.2,194.3,69.1,197.4,65.3,197.4z"/>
				<g id="XMLID_37_">
					<path id="XMLID_38_" class="st9" d="M74.6,179.2h-1.7v-1.6c0-1.7-0.7-2.7-0.9-2.7H59.5c-0.2,0-0.9,1-0.9,2.7v1.6h-1.7v-1.6
						c0-2.5,1.1-4.4,2.6-4.4h12.5c1.5,0,2.6,1.9,2.6,4.4V179.2z"/>
				</g>
			</g>
		</g>
		<g id="XMLID_39_">
			<path id="XMLID_40_" class="st8" d="M341.9,86.6l6.4,16.6l6.4-25.4l5.7,18.6h10.2c1.1-2.5,1.8-5.2,1.8-8c0-8.2-6-14.8-13.5-14.8
				c-3.9,0-7.3,1.8-9.8,4.6c-2.5-2.9-5.9-4.6-9.8-4.6c-7.4,0-13.8,6.6-13.5,14.8c0.1,2.6,0.8,5.1,1.8,7.5h8.9L341.9,86.6z"/>
			<path id="XMLID_41_" class="st8" d="M354.9,85.2l-6.1,24.5l-7.2-18.6l-3.8,6.6h-9.1c6.2,11.3,20.4,19.7,20.4,19.7
				s14.3-7.9,20.5-19.1h-10.7L354.9,85.2z"/>
		</g>
		<g id="XMLID_42_">
			<path id="XMLID_43_" class="st8" d="M461.3,206.7l-0.4-1.9c-1.2,0.2-2.6,0.2-4,0l-10.5-9.7c-0.2-1.3-0.2-2.6,0.1-3.8l-1.9-0.4
				c-0.7,3.6,0.5,8,1.3,10.5c-3.6-1-8.8-1.6-12.7,1.6c-4.6,3.8-2.8,10.6-1.4,14.3c-5.6-2.2-10.7-1.6-14,1.6c-3,2.9-3.9,7.4-2.4,11.4
				c0.2,0.6,0.4,1.1,0.6,1.7c-4.8-1-8.2-1.1-8.4-1.1v1.9c0,0,0.9,0,2.4,0.1l7.9,7.1c0.4,2.7,0.4,4.4,0.4,4.4l1.9,0
				c0-0.1,0-1.5-0.3-3.6l0.1-0.1l-0.1-0.1c-0.2-1.6-0.5-3.7-1.1-5.9c1,0.3,2,0.6,3,1c1.3,0.5,2.7,0.7,4,0.7c2.8,0,5.5-1.1,7.5-3.1
				c2.9-3.1,3.7-7.5,2.2-12.5c3.8,1.2,9.4,2.1,12.8-1.9c1.4-1.7,2.1-3.7,2.3-5.6l0.2-0.2l-0.2-0.1c0.3-3.1-0.5-6.2-1.2-8.2
				C450.7,205.4,456.7,207.6,461.3,206.7z M438.1,202.8l10.5,9.7c-0.1,1.5-0.4,2.9-1.2,4.2l-13-12.1c0,0,0,0,0.1-0.1
				C435.6,203.6,436.8,203.1,438.1,202.8z M417.7,238.7l-6-5.4c1.4,0.2,3.1,0.5,5,0.9C417.2,235.8,417.5,237.3,417.7,238.7z
				 M422.6,234c-1.5-0.6-2.9-1-4.3-1.4c-0.3-0.9-0.6-1.9-1-2.9c-0.7-1.8-0.8-3.6-0.4-5.3l10.8,10C426.1,234.7,424.3,234.6,422.6,234
				z M431.9,232.1c-0.9,0.9-1.9,1.6-3.1,2l-11.6-10.7c0.4-1.1,1.1-2.2,2-3c1-0.9,2.1-1.6,3.4-2l11.3,10.4
				C433.5,230,432.8,231.1,431.9,232.1z M434.1,227.7l-10.4-9.6c2.3-0.4,5,0,7.8,1.1c0.2,0.1,0.7,0.4,1.6,0.8
				C434.2,222.8,434.5,225.4,434.1,227.7z M434.5,218.5c-0.6-1.2-2.4-5.2-2.3-8.9l11,10.2C440.3,220.4,436.7,219.3,434.5,218.5z
				 M444.3,219.4l-11.9-11.1c0.2-1.1,0.6-2.2,1.3-3l13.1,12.2c-0.1,0.1-0.1,0.1-0.1,0.2C446,218.5,445.2,219.1,444.3,219.4z
				 M439.4,202.7c2.8-0.2,5.6,0.5,7.5,1.1c0.5,1.2,1.7,4.2,1.8,7.4L439.4,202.7z M448.3,202.2c-0.3-0.6-1.1-2.9-1.6-5.5l8.5,7.8
				c-2.9-0.6-5.3-1.6-5.3-1.6C449.8,202.9,449.2,202.6,448.3,202.2z"/>
			
				<rect id="XMLID_54_" x="425.1" y="217.5" transform="matrix(0.6782 -0.7349 0.7349 0.6782 -29.1987 385.5748)" class="st8" width="1" height="17.2"/>
		</g>
		<g id="XMLID_55_">
			<circle class="st5" cx="391.8" cy="387.7" r="39.1"/>
			<circle class="st6" cx="391.8" cy="387.7" r="46.8"/>
			<g id="XMLID_56_">
				<path id="XMLID_57_" class="st7" d="M391.8,427.2c-21.8,0-39.5-17.7-39.5-39.5s17.7-39.5,39.5-39.5c21.8,0,39.5,17.7,39.5,39.5
					S413.6,427.2,391.8,427.2z M391.8,349.1c-21.3,0-38.6,17.3-38.6,38.6c0,21.3,17.3,38.6,38.6,38.6c21.3,0,38.6-17.3,38.6-38.6
					C430.5,366.4,413.1,349.1,391.8,349.1z"/>
			</g>
			<path id="XMLID_60_" class="st8" d="M409.9,387.9c0-3.2-2.6-5.9-5.9-5.9c1.2-2.1,2-4.7,2-7.7c0-6.8-4.2-9.6-6.6-10.6
				c0-0.1,0-0.2,0-0.3c0-1.3-1-2.3-2.3-2.3c-1.3,0-2.3,1-2.3,2.3s1,2.3,2.3,2.3c0.7,0,1.3-0.3,1.7-0.7c2.1,0.8,5.8,3.2,5.8,9.4
				c0,2.5-0.8,5.4-2.4,8c-2.2,0.7-3.8,2.5-4.1,4.8c-2.2,1.9-5,3.4-8.2,4.2c-9.6-2.5-14.8-10.6-14.8-17c0-7,4.8-9.1,6.5-9.6
				c0.4,0.6,1.1,1,1.9,1c1.3,0,2.3-1,2.3-2.3s-1-2.3-2.3-2.3c-1.3,0-2.3,1-2.3,2.3c-2.1,0.7-7.5,3.1-7.5,10.9
				c0,5.5,2.8,9.6,5.2,12.1c2.8,2.9,6.5,5.1,10.3,6.2v12.3c0,4.2,3.4,7.6,7.6,7.6c4.2,0,7.6-3.4,7.6-7.6v-11
				C407.5,393.6,409.9,391.1,409.9,387.9z M396.9,411.1c-3.4,0-6.2-2.8-6.2-6.2v-12.3c2.6-0.7,5.3-2.1,7.6-3.8
				c0.4,2.6,2.4,4.6,4.9,5v11.1C403.1,408.3,400.3,411.1,396.9,411.1z M404,390.2c-1.3,0-2.3-1-2.3-2.3s1-2.3,2.3-2.3
				c1.3,0,2.3,1,2.3,2.3S405.3,390.2,404,390.2z"/>
		</g>
	</g>
	<g id="XMLID_64_" class="st0">
		<g id="XMLID_65_">
			<defs>
				<path id="XMLID_68_" d="M91.4,547.1c0,0,76-110.7,68-125.9c-7.9-15.2-44.7-72.4-23.3-111.4c24.8-45.2,16.5-89,21.4-95.3
					c3.9-5.1,24.2,6,26.3,32.6c2.9,38.4-19.4,67.1-9.7,72c9.8,4.9,81.4-42.3,109.9-11.2s8.5,113.9-13.9,127.9
					c-41.5,25.8-43.5,126.9-43.5,126.9S120.6,578.9,91.4,547.1z"/>
			</defs>
			<use xlink:href="#XMLID_68_"  style="overflow:visible;fill:#FCA9AA;"/>
			<clipPath id="XMLID_225_">
				<use xlink:href="#XMLID_68_"  style="overflow:visible;"/>
			</clipPath>
			<path id="XMLID_66_" class="st10" d="M174.1,218.4c0,0-5.3,32.6-2.9,59.3S151.2,409,176,416.8c24.8,7.8,104.1-7.8,107,27.2
				c2.9,35,61.3-43.3,61.3-43.3l-5.8-31.6C338.4,369.2,189.1,205.8,174.1,218.4z"/>
			<path id="XMLID_67_" class="st10" d="M158.1,430c0.4,2.4-75.4,149.7,76.3,111.8c151.7-37.9,18.5,56.4,18.5,56.4l-147.3-31.1
				L53,529.1C53,529.1,140.1,414,158.1,430"/>
		</g>
		<g id="XMLID_69_">
			<defs>
				<path id="XMLID_71_" d="M284.3,221.1c0,0,40.3-57.6,60.3-53c23.2,5.3,3.3,36.4-49,76.8C243.2,285.4,284.3,221.1,284.3,221.1z"/>
			</defs>
			<use xlink:href="#XMLID_71_"  style="overflow:visible;fill:#FCA9AA;"/>
			<clipPath id="XMLID_226_">
				<use xlink:href="#XMLID_71_"  style="overflow:visible;"/>
			</clipPath>
			<path id="XMLID_70_" class="st11" d="M317.5,173.2c0,0,2.9,63.2,36.5,19.4c33.6-43.8-10.7,32.1-10.7,32.1l-33.9,9.1l-3-21.3
				L317.5,173.2z"/>
		</g>
		<path id="XMLID_72_" class="st12" d="M338.4,236.1c0,0-23-6.3-38.2,14.2C284.9,270.8,321,269.5,338.4,236.1z"/>
		<path class="st12" d="M339.5,282.6c0,0-19.9-9.1-36.7,7.3C286,306.4,318.9,310.5,339.5,282.6z"/>
		<path class="st12" d="M336,322c0,0-19.8-9.5-36.6,6.9C282.6,345.3,315.3,349.8,336,322z"/>
		<g id="XMLID_73_">
			<path id="XMLID_211_" class="st7" d="M308.2,417.1H186.8c-6.5,0-11.8-5.3-11.8-11.8V170.6c0-6.5,5.3-11.8,11.8-11.8h121.4
				c6.5,0,11.8,5.3,11.8,11.8v234.7C319.9,411.8,314.7,417.1,308.2,417.1z"/>
			<path id="XMLID_74_" class="st7" d="M317,239.8L317,239.8v-37.9l0,0c2.1,0,3.9,1.7,3.9,3.9v30.1
				C320.9,238.1,319.2,239.8,317,239.8z"/>
			<path class="st7" d="M177.9,224.8L177.9,224.8v37.9l0,0c-2.1,0-3.9-1.7-3.9-3.9v-30.1C174.1,226.5,175.8,224.8,177.9,224.8z"/>
			<path id="XMLID_210_" class="st13" d="M318.1,284.6H317v-19.9h1.1c1.6,0,2.8,1.3,2.8,2.8v14.3
				C320.9,283.3,319.6,284.6,318.1,284.6z"/>
		</g>
		<g id="XMLID_75_">
			<defs>
				<path id="XMLID_79_" d="M304.6,395.4H190.4c-5.9,0-10.8-4.8-10.8-10.8V175.3c0-5.9,4.8-10.8,10.8-10.8h114.1
					c5.9,0,10.8,4.8,10.8,10.8v209.4C315.3,390.6,310.5,395.4,304.6,395.4z"/>
			</defs>
			<use xlink:href="#XMLID_79_"  style="overflow:visible;fill:#C8E6FF;"/>
			<clipPath id="XMLID_227_">
				<use xlink:href="#XMLID_79_"  style="overflow:visible;"/>
			</clipPath>
			<polygon id="XMLID_76_" class="st14" points="147.8,307.4 282,114.9 333.1,117.8 152.2,359.9 			"/>
			<polygon id="XMLID_77_" class="st14" points="164.4,367.8 344.2,141.6 359.8,155.7 164.4,385.9 			"/>
			<path id="XMLID_78_" class="st14" d="M197.9,412c2.4-3.4,177.5-191.1,177.5-191.1l19,37.4L319,349.7l-110.1,69.8l-14.2-2.4"/>
		</g>
		<circle class="st15" cx="247.5" cy="406.4" r="5.3"/>
		<g id="XMLID_80_">
			<path id="XMLID_81_" class="st16" d="M324,242.3c0,0-15.9,18.5-14.6,37.8c1.3,19.2,29.8-8.6,33.8-23.8
				C347.2,241,338.6,226.4,324,242.3z"/>
			<path class="st16" d="M325.6,286.2c0,0-17.1,14.5-18.7,32.1c-1.6,17.6,28.3-3.5,34.1-16.7S341.1,273.9,325.6,286.2z"/>
			<path class="st16" d="M326,324c0,0-15.7,9.3-19.4,23.3c-3.7,13.9,23.2,1.1,29.7-8.8C342.8,328.6,340.2,316.2,326,324z"/>
			<path class="st17" d="M325.3,281.9c-4.7,5.5-11.1,7.7-14.2,5c-3.2-2.7-1.9-9.3,2.8-14.8c4.7-5.5,9.2-5.5,12.3-2.8
				S330,276.5,325.3,281.9z"/>
			<path class="st17" d="M322.8,320.6c-4.4,5.1-10.3,7.1-13.2,4.6c-2.9-2.5-1.8-8.7,2.6-13.8c4.4-5.1,8.5-5.1,11.5-2.6
				C326.6,311.4,327.2,315.5,322.8,320.6z"/>
			<path class="st17" d="M318.7,349.7c-3.5,4-8.2,5.7-10.5,3.7c-2.3-2-1.4-6.9,2.1-10.9c3.5-4,6.8-4,9.1-2
				C321.7,342.4,322.2,345.7,318.7,349.7z"/>
		</g>
		<path id="XMLID_82_" class="st18" d="M259.9,341H149c-2,0-3.7,1.6-3.7,3.7v17.5c0,2,1.6,3.7,3.7,3.7h78.3l5.1,6.3l6-6.3h21.4
			c2,0,3.7-1.6,3.7-3.7v-17.5C263.5,342.6,261.9,341,259.9,341z"/>
		<path id="XMLID_83_" class="st2" d="M259.9,337.6H149c-2,0-3.7,1.6-3.7,3.7v17.5c0,2,1.6,3.7,3.7,3.7h78.3l5.1,6.3l6-6.3h21.4
			c2,0,3.7-1.6,3.7-3.7v-17.5C263.5,339.2,261.9,337.6,259.9,337.6z"/>
		<g id="XMLID_84_">
			<defs>
				<path id="XMLID_107_" d="M133.7,289.5c3.9,3.7,202.3,0,202.3,0V58H133.7V289.5z"/>
			</defs>
			<clipPath id="XMLID_228_">
				<use xlink:href="#XMLID_107_"  style="overflow:visible;"/>
			</clipPath>
			<g id="XMLID_85_" class="st19">
				<defs>
					<path id="XMLID_87_" d="M221.2,284.1l2.9,29.7h44.7l5.3-39.9l-31.6-4.9C242.6,269,215.9,266.6,221.2,284.1z"/>
				</defs>
				<use xlink:href="#XMLID_87_"  style="overflow:visible;fill:#3EA1DE;"/>
				<clipPath id="XMLID_229_">
					<use xlink:href="#XMLID_87_"  style="overflow:visible;"/>
				</clipPath>
				<path id="XMLID_86_" class="st20" d="M215.9,271.9c-0.6,1.9,56.9,8.3,66.1-2.4C297.3,251.8,219.8,258.8,215.9,271.9z"/>
			</g>
			<path id="XMLID_88_" class="st21" d="M155.6,239.8c0,0-3.4-14.6,0.5-26.3c0,0,5.8-3.4,5.8,3.9
				C161.9,224.8,155.6,239.8,155.6,239.8z"/>
			<path id="XMLID_89_" class="st22" d="M248.5,155.7c0,0-22.9,6.8-23.8,13.6c-1,6.8,0,101.1,0,101.1s44.7,3.9,49.6,0
				c4.9-3.9,10.7-107.5,6.3-110.9c-4.4-3.4-20.4-5.8-20.4-5.8L248.5,155.7z"/>
			<g id="XMLID_90_" class="st19">
				<defs>
					<path id="XMLID_92_" d="M269.4,154.7c0,0-10.5,20.2-9.5,43c1,22.9,1.9,119.1,1.9,119.1l24.3-5.8V176.9
						C286.1,176.9,282.3,163.6,269.4,154.7z"/>
				</defs>
				<use xlink:href="#XMLID_92_"  style="overflow:visible;fill:#F8FDFF;"/>
				<clipPath id="XMLID_230_">
					<use xlink:href="#XMLID_92_"  style="overflow:visible;"/>
				</clipPath>
				<path id="XMLID_91_" class="st23" d="M259.6,237.4l31.6-2.9l-7.8-47.2c0,0,10.7,27.7-25.8,31.6c-36.8,3.9,3,15.4,3,15.4"/>
			</g>
			<path id="XMLID_93_" class="st24" d="M242.8,157.6c0,0-5.8,13.9-6.7,51.8c-1,37.9-2.4,107.5-2.4,107.5l-22.9-1.9
				c0,0,8.3-135.7,13.6-145.9C229.7,158.9,242.8,157.6,242.8,157.6z"/>
			<path id="XMLID_94_" class="st24" d="M242.9,157.4c0,0-18,3.9-24.3,8.8c-6.3,4.9-19.4,38.4-21.9,37.9
				c-2.4-0.5-22.9-25.8-26.3-27.2c0,0-8.3,12.6-10.7,13.1c0,0,24.8,34.5,33.6,39.9c8.8,5.3,29.7-23.8,29.7-23.8L242.9,157.4z"/>
			<path id="XMLID_95_" class="st25" d="M235.7,107.9c0,0.9-4.3,13.8,0,28.5c4.3,14.7,12.1,12.9,12.1,12.9s-0.9,6-3.4,8.6l4.3,9.5
				l19.3-12.2c0,0-7.2-15.4-1.2-29.2c6-13.8-17.3-35.4-30.2-18.1"/>
			<path id="XMLID_96_" class="st26" d="M264.2,121.7c0,0,0.8,12.5-5.4,14c-6.2,1.6-12.5-4.7-17.9-2.3c-5.4,2.3-6.2-2.3-6.2-2.3
				s-1.6,10.1-1.6,12.5c0,2.3,4.7,8.6,10.1,8.6s21-8.6,23.3-13.2c2.3-4.7,0-17.1,0-17.1H264.2z"/>
			<path id="XMLID_97_" class="st26" d="M253.8,110.5c0,0-16.3,5.1-20.7-0.9c-6.5-8.8,6-13.8,12.1-11.2c6,2.6,25.9-3.5,22.4,9.5
				c0,0,10.4,2.6,5.2,12.9c-5.2,10.3-6.9,15.5-6.9,15.5v-11.2C265.9,125.1,259.8,108.7,253.8,110.5z"/>
			<g id="XMLID_98_" class="st19">
				<path id="XMLID_99_" class="st27" d="M163.4,176.9c0,0-3.3-3.5-3.9-6.3c-0.1-0.4-0.6-0.5-0.9-0.1c-0.9,1.5-1.9,4.3,0.8,6.6
					C163.4,180.5,163.4,176.9,163.4,176.9z"/>
				<path id="XMLID_100_" class="st27" d="M167.7,183.4c-0.5,0-2.4-6.3-5.8-6.8c-3.4-0.5-10.2,0-11.2,0c-1,0-9.2-5.3-13.1-2.4
					c0,0,10.2,3.4,11.7,5.3c1.5,1.9,8.3,6.8,15.1,7.8"/>
				<path id="XMLID_101_" class="st27" d="M139.5,173.4"/>
			</g>
			<polygon id="XMLID_102_" class="st28" points="271.8,157.4 275.9,173.5 270.6,173.5 273,184.2 260.2,208.7 275.9,185.6 
				273,174.4 277.9,174.4 			"/>
			<polygon id="XMLID_103_" class="st28" points="241.2,158.3 227.1,170.8 230.5,170.8 226.1,180.5 234.8,200.9 228,180.5 
				232.4,170.3 230,169.3 			"/>
			<polygon id="XMLID_104_" class="st29" points="193.5,195.8 234.4,195.8 249.4,245.9 208.6,245.9 			"/>
			<path id="XMLID_105_" class="st25" d="M250.6,225.2c0,0-3.5-5.3-9.3-6.1l1.3,4.4c0,0-10.1-2.2-12.5-4.2c-2.4-1.9-1.5,7.3,1,9.2
				c2.4,1.9,6.3,4.4,7.8,5.3c1.5,1,12.2-0.5,12.2-0.5L250.6,225.2z"/>
			<path id="XMLID_106_" class="st24" d="M269.6,155.5c0,0,21.4,5.3,28.2,11.7c6.8,6.3,11.7,50.6,8.8,55.9
				c-2.9,5.3-51.3,14.3-55.2,14.3c0,0,0-13.1-3.4-15.1c0,0,35.3-6.1,36.7-9.5C286.1,209.4,284.2,165.7,269.6,155.5z"/>
			
				<ellipse transform="matrix(0.9995 -3.113077e-002 3.113077e-002 0.9995 -3.6847 7.7748)" class="st30" cx="247.8" cy="122.2" rx="4.2" ry="6.4"/>
			
				<ellipse transform="matrix(0.9995 -3.114203e-002 3.114203e-002 0.9995 -3.6898 7.4024)" class="st30" cx="235.8" cy="122.2" rx="4.2" ry="6.4"/>
			<line class="st30" x1="251.9" y1="122.2" x2="267.9" y2="125.1"/>
			<path class="st30" d="M239.7,121.7c0,0,1.9-1.5,4-0.2"/>
			
				<ellipse transform="matrix(0.8973 0.4414 -0.4414 0.8973 84.0746 -105.1424)" class="st25" cx="268" cy="128.1" rx="3" ry="4.7"/>
		</g>
		<g id="XMLID_108_">
			<path id="XMLID_109_" class="st2" d="M291.2,387.2h-90c-3.8,0-6.8-3-6.8-6.8l0,0c0-3.8,3-6.8,6.8-6.8h90c3.8,0,6.8,3,6.8,6.8l0,0
				C298,384.1,295,387.2,291.2,387.2z"/>
			<circle class="st7" cx="202.7" cy="380.4" r="5.3"/>
		</g>
		<g id="XMLID_110_">
			<path id="XMLID_111_" class="st8" d="M168.7,346.9c0-2.2-1.8-4.4-4-4.4c-2.1,0-3.8,1.7-4,3.7l0,0l0,0c-0.1-2.1-1.8-3.7-4-3.7
				c-2.2,0-4,2.2-4,4.4c0,0.3,0,0.5,0.1,0.8l0,0c0,0,0.9,6,7.9,8.8c7-2.8,7.9-8.8,7.9-8.8l0,0C168.7,347.4,168.7,347.2,168.7,346.9z
				"/>
		</g>
		<rect x="175" y="344.4" class="st7" width="74.4" height="1.5"/>
		<rect x="175" y="347.1" class="st7" width="74.4" height="1.5"/>
		<rect x="175" y="349.9" class="st7" width="74.4" height="1.5"/>
		<rect x="175" y="352.6" class="st7" width="26.7" height="1.5"/>
		<path class="st18" d="M186.5,298.2h110.8c2,0,3.7,1.6,3.7,3.7v17.5c0,2-1.6,3.7-3.7,3.7H219l-5.1,6.3l-6-6.3h-21.4
			c-2,0-3.7-1.6-3.7-3.7v-17.5C182.8,299.8,184.5,298.2,186.5,298.2z"/>
		<path class="st2" d="M186.5,294.8h110.8c2,0,3.7,1.6,3.7,3.7v17.5c0,2-1.6,3.7-3.7,3.7H219l-5.1,6.3l-6-6.3h-21.4
			c-2,0-3.7-1.6-3.7-3.7v-17.5C182.8,296.4,184.5,294.8,186.5,294.8z"/>
		<rect x="196.9" y="301.6" class="st7" width="74.4" height="1.5"/>
		<rect x="196.9" y="304.3" class="st7" width="74.4" height="1.5"/>
		<rect x="196.9" y="307.1" class="st7" width="74.4" height="1.5"/>
		<rect id="XMLID_112_" x="244.6" y="309.9" class="st7" width="26.7" height="1.5"/>
		<g id="XMLID_113_">
			<g id="XMLID_114_">
				<g id="XMLID_115_">
					<defs>
						<path id="XMLID_139_" d="M289.2,301.9"/>
					</defs>
					<use xlink:href="#XMLID_139_"  style="overflow:visible;fill:#D81F32;"/>
					<clipPath id="XMLID_231_">
						<use xlink:href="#XMLID_139_"  style="overflow:visible;"/>
					</clipPath>
					<rect id="XMLID_116_" x="283.3" y="298.9" class="st31" width="5.9" height="5.9"/>
					<circle id="XMLID_117_" class="st31" cx="286.2" cy="301.9" r="3"/>
					<circle id="XMLID_118_" class="st31" cx="286.2" cy="301.9" r="2.9"/>
					<circle id="XMLID_119_" class="st31" cx="286.2" cy="301.9" r="2.8"/>
					<circle id="XMLID_120_" class="st31" cx="286.2" cy="301.9" r="2.8"/>
					<circle id="XMLID_121_" class="st31" cx="286.2" cy="301.9" r="2.7"/>
					<circle id="XMLID_122_" class="st31" cx="286.2" cy="301.9" r="2.7"/>
					<circle id="XMLID_123_" class="st31" cx="286.2" cy="301.9" r="2.6"/>
					<circle id="XMLID_124_" class="st31" cx="286.2" cy="301.9" r="2.5"/>
					<circle id="XMLID_125_" class="st31" cx="286.2" cy="301.9" r="2.5"/>
					<circle id="XMLID_126_" class="st31" cx="286.2" cy="301.9" r="2.4"/>
					<circle id="XMLID_127_" class="st31" cx="286.2" cy="301.9" r="2.4"/>
					<circle id="XMLID_128_" class="st31" cx="286.2" cy="301.9" r="2.3"/>
					<circle id="XMLID_129_" class="st31" cx="286.2" cy="301.9" r="2.2"/>
					<path id="XMLID_131_" class="st31" d="M286.2,304.1c-1.2,0-2.2-1-2.2-2.2c0-1.2,1-2.2,2.2-2.2"/>
					<path id="XMLID_142_" class="st31" d="M286.2,304c-1.2,0-2.1-0.9-2.1-2.1c0-1.2,0.9-2.1,2.1-2.1"/>
					<circle id="XMLID_132_" class="st31" cx="286.2" cy="301.9" r="2.1"/>
					<circle id="XMLID_133_" class="st31" cx="286.2" cy="301.9" r="2"/>
					<circle id="XMLID_134_" class="st31" cx="286.2" cy="301.9" r="1.9"/>
					<circle id="XMLID_135_" class="st31" cx="286.2" cy="301.9" r="1.9"/>
					<circle id="XMLID_136_" class="st31" cx="286.2" cy="301.9" r="1.8"/>
					<circle id="XMLID_137_" class="st31" cx="286.2" cy="301.9" r="1.8"/>
					<circle id="XMLID_138_" class="st31" cx="286.2" cy="301.9" r="1.7"/>
					<path id="XMLID_166_" class="st32" d="M284.6,301.9c0-0.9,0.7-1.6,1.6-1.6c0.9,0,1.6,0.7,1.6,1.6"/>
					<circle id="XMLID_140_" class="st31" cx="286.2" cy="301.9" r="1.6"/>
					<circle id="XMLID_141_" class="st31" cx="286.2" cy="301.9" r="1.5"/>
					<path id="XMLID_222_" class="st31" d="M286.2,303.3c-0.8,0-1.5-0.7-1.5-1.5c0-0.8,0.7-1.5,1.5-1.5"/>
					<circle id="XMLID_143_" class="st31" cx="286.2" cy="301.9" r="1.4"/>
					<circle id="XMLID_144_" class="st31" cx="286.2" cy="301.9" r="1.3"/>
					<circle id="XMLID_145_" class="st31" cx="286.2" cy="301.9" r="1.3"/>
					<circle id="XMLID_146_" class="st31" cx="286.2" cy="301.9" r="1.2"/>
					<circle id="XMLID_147_" class="st31" cx="286.2" cy="301.9" r="1.2"/>
					<circle id="XMLID_148_" class="st31" cx="286.2" cy="301.9" r="1.1"/>
					<circle id="XMLID_149_" class="st31" cx="286.2" cy="301.9" r="1"/>
					<circle id="XMLID_150_" class="st31" cx="286.2" cy="301.9" r="1"/>
					<circle id="XMLID_151_" class="st31" cx="286.2" cy="301.9" r="0.9"/>
					<circle id="XMLID_152_" class="st31" cx="286.2" cy="301.9" r="0.8"/>
					<circle id="XMLID_153_" class="st32" cx="286.2" cy="301.9" r="0.8"/>
					<circle id="XMLID_154_" class="st31" cx="286.2" cy="301.9" r="0.7"/>
					<circle id="XMLID_155_" class="st31" cx="286.2" cy="301.9" r="0.7"/>
					<circle id="XMLID_156_" class="st31" cx="286.2" cy="301.9" r="0.6"/>
					<circle id="XMLID_157_" class="st31" cx="286.2" cy="301.9" r="0.5"/>
					<circle id="XMLID_158_" class="st31" cx="286.2" cy="301.9" r="0.5"/>
					<circle id="XMLID_159_" class="st31" cx="286.2" cy="301.9" r="0.4"/>
					<circle id="XMLID_160_" class="st31" cx="286.2" cy="301.9" r="0.4"/>
					<circle id="XMLID_161_" class="st31" cx="286.2" cy="301.9" r="0.3"/>
					<circle id="XMLID_162_" class="st31" cx="286.2" cy="301.9" r="0.2"/>
					<circle id="XMLID_163_" class="st31" cx="286.2" cy="301.9" r="0.2"/>
					<circle id="XMLID_164_" class="st31" cx="286.2" cy="301.9" r="0.1"/>
					<circle id="XMLID_165_" class="st31" cx="286.2" cy="301.9" r="0.1"/>
				</g>
			</g>
			<g id="XMLID_167_">
				<g id="XMLID_168_">
					<defs>
						<path id="XMLID_204_" d="M291.7,312"/>
					</defs>
					<use xlink:href="#XMLID_204_"  style="overflow:visible;fill:#D81F32;"/>
					<clipPath id="XMLID_232_">
						<use xlink:href="#XMLID_204_"  style="overflow:visible;"/>
					</clipPath>
					<rect id="XMLID_169_" x="280.9" y="307" class="st33" width="10.8" height="5.4"/>
					<circle id="XMLID_170_" class="st33" cx="286.3" cy="309.3" r="4.3"/>
					<circle id="XMLID_171_" class="st33" cx="286.3" cy="309.3" r="4.2"/>
					<circle id="XMLID_172_" class="st33" cx="286.3" cy="309.3" r="4.1"/>
					<circle id="XMLID_173_" class="st33" cx="286.3" cy="309.3" r="4"/>
					<circle id="XMLID_174_" class="st33" cx="286.3" cy="309.3" r="3.9"/>
					<circle id="XMLID_175_" class="st33" cx="286.3" cy="309.3" r="3.8"/>
					<circle id="XMLID_176_" class="st33" cx="286.3" cy="309.3" r="3.7"/>
					<circle id="XMLID_177_" class="st33" cx="286.3" cy="309.3" r="3.7"/>
					<circle id="XMLID_178_" class="st33" cx="286.3" cy="309.3" r="3.6"/>
					<circle id="XMLID_179_" class="st33" cx="286.3" cy="309.3" r="3.5"/>
					<circle id="XMLID_180_" class="st33" cx="286.3" cy="309.3" r="3.4"/>
					<circle id="XMLID_181_" class="st33" cx="286.3" cy="309.3" r="3.3"/>
					<circle id="XMLID_182_" class="st33" cx="286.3" cy="309.3" r="3.2"/>
					<circle id="XMLID_183_" class="st33" cx="286.3" cy="309.3" r="3.1"/>
					<circle id="XMLID_184_" class="st33" cx="286.3" cy="309.3" r="3"/>
					<circle id="XMLID_185_" class="st33" cx="286.3" cy="309.3" r="3"/>
					<circle id="XMLID_187_" class="st33" cx="286.3" cy="309.3" r="2.8"/>
					<circle id="XMLID_188_" class="st33" cx="286.3" cy="309.3" r="2.7"/>
					<circle id="XMLID_189_" class="st33" cx="286.3" cy="309.3" r="2.6"/>
					<circle id="XMLID_190_" class="st33" cx="286.3" cy="309.3" r="2.5"/>
					<circle id="XMLID_191_" class="st33" cx="286.3" cy="309.3" r="2.4"/>
					<circle id="XMLID_192_" class="st33" cx="286.3" cy="309.3" r="2.4"/>
					<path id="XMLID_130_" class="st34" d="M286.3,311.6c-1.3,0-2.3-1-2.3-2.3c0-1.3,1-2.3,2.3-2.3"/>
					<circle id="XMLID_194_" class="st33" cx="286.3" cy="309.3" r="2.2"/>
					<circle id="XMLID_195_" class="st33" cx="286.3" cy="309.3" r="2.1"/>
					<path id="XMLID_186_" class="st33" d="M286.3,307.3c1.1,0,2,0.9,2,2c0,1.1-0.9,2-2,2"/>
					<circle id="XMLID_197_" class="st33" cx="286.3" cy="309.3" r="1.9"/>
					<path id="XMLID_198_" class="st33" d="M286.3,307.5c1,0,1.8,0.8,1.8,1.8"/>
					<path id="XMLID_199_" class="st33" d="M286.3,307.6c1,0,1.7,0.8,1.7,1.7"/>
					<circle id="XMLID_200_" class="st33" cx="286.3" cy="309.3" r="1.7"/>
					<circle id="XMLID_201_" class="st33" cx="286.3" cy="309.3" r="1.6"/>
					<circle id="XMLID_202_" class="st33" cx="286.3" cy="309.3" r="1.5"/>
					<circle id="XMLID_203_" class="st33" cx="286.3" cy="309.3" r="1.4"/>
					<circle id="XMLID_205_" class="st33" cx="286.3" cy="309.3" r="1.2"/>
					<circle id="XMLID_206_" class="st33" cx="286.3" cy="309.3" r="1.1"/>
					<circle id="XMLID_207_" class="st33" cx="286.3" cy="309.3" r="1"/>
					<circle id="XMLID_208_" class="st33" cx="286.3" cy="309.3" r="1"/>
					<circle id="XMLID_209_" class="st33" cx="286.3" cy="309.3" r="0.9"/>
					<circle id="XMLID_213_" class="st33" cx="286.3" cy="309.3" r="0.8"/>
					<circle id="XMLID_214_" class="st33" cx="286.3" cy="309.3" r="0.7"/>
					<circle id="XMLID_215_" class="st33" cx="286.3" cy="309.3" r="0.6"/>
					<circle id="XMLID_216_" class="st33" cx="286.3" cy="309.3" r="0.5"/>
					<circle id="XMLID_217_" class="st34" cx="286.3" cy="309.3" r="0.4"/>
					<circle id="XMLID_218_" class="st33" cx="286.3" cy="309.3" r="0.4"/>
					<circle id="XMLID_219_" class="st33" cx="286.3" cy="309.3" r="0.3"/>
					<circle id="XMLID_220_" class="st33" cx="286.3" cy="309.3" r="0.2"/>
					<circle id="XMLID_221_" class="st33" cx="286.3" cy="309.3" r="0.1"/>
				</g>
			</g>
		</g>
	</g>
</g>
<g id="XMLID_193_">
	<path id="XMLID_196_" class="st8" d="M293.5,304.4c0-2.2-1.8-4.4-4-4.4c-2.1,0-3.8,1.7-4,3.7l0,0l0,0c-0.1-2.1-1.8-3.7-4-3.7
		c-2.2,0-4,2.2-4,4.4c0,0.3,0,0.5,0.1,0.8l0,0c0,0,0.9,6,7.9,8.8c7-2.8,7.9-8.8,7.9-8.8l0,0C293.4,304.9,293.5,304.7,293.5,304.4z"
		/>
</g>
</svg>
