<?xml version="1.0" encoding="utf-8"?>
<!-- Generator: Adobe Illustrator 19.0.0, SVG Export Plug-In . SVG Version: 6.00 Build 0)  -->
<svg version="1.1" id="Outline" xmlns="http://www.w3.org/2000/svg" xmlns:xlink="http://www.w3.org/1999/xlink" x="0px" y="0px"
	 viewBox="-49 141 512 512" style="enable-background:new -49 141 512 512;" xml:space="preserve">
<style type="text/css">
	.st0{fill:#1C88C6;}
</style>
<path class="st0" d="M220.3,140.5h-17.1c-14.1,0-25.6,11.5-25.6,25.6v8.5h-17.1c-4.7,0-8.5,3.8-8.5,8.5v25.6H49.4
	c-23.6,0-42.7,19.1-42.7,42.7v358.8c0,23.6,19.1,42.7,42.7,42.7H374c23.6,0,42.7-19.1,42.7-42.7V251.5c0-23.6-19.1-42.7-42.7-42.7
	H271.5v-25.6c0-4.7-3.8-8.5-8.5-8.5h-17.1v-8.5C245.9,151.9,234.4,140.5,220.3,140.5z M194.7,166.1c0-4.7,3.8-8.5,8.5-8.5h17.1
	c4.7,0,8.5,3.8,8.5,8.5v8.5h-34.2V166.1z M220.3,191.7v68.3h-17.1v-68.3H220.3z M194.7,277.1h34.2c4.7,0,8.5-3.8,8.5-8.5v-8.5h128.1
	v341.7H58V260.1h128.1v8.5C186.1,273.3,189.9,277.1,194.7,277.1z M254.5,191.7v25.6c0,4.7,3.8,8.5,8.5,8.5h111
	c14.1,0,25.6,11.5,25.6,25.6v358.8c0,14.1-11.5,25.6-25.6,25.6H49.4c-14.1,0-25.6-11.5-25.6-25.6V251.5c0-14.1,11.5-25.6,25.6-25.6
	h111c4.7,0,8.5-3.8,8.5-8.5v-25.6h17.1V243H49.4c-4.7,0-8.5,3.8-8.5,8.5v358.8c0,4.7,3.8,8.5,8.5,8.5H374c4.7,0,8.5-3.8,8.5-8.5
	V251.5c0-4.7-3.8-8.5-8.5-8.5H237.4v-51.3H254.5z"/>
<path class="st0" d="M152,354c0,14.5,5.2,28.4,14.8,39.3c0.2,0.2,0.4,0.4,0.6,0.6c22.1,24.6,59.9,26.6,84.4,4.5
	c1.6-1.4,3.1-2.9,4.5-4.5c0.2-0.2,0.4-0.4,0.6-0.6c21.7-24.9,19.2-62.6-5.7-84.4c-24.9-21.7-62.6-19.2-84.4,5.7
	C157.2,325.6,151.9,339.6,152,354z M211.7,396.7c-9.2,0-18.2-3-25.6-8.5c15.2-11.4,36-11.4,51.2,0C230,393.7,221,396.7,211.7,396.7z
	 M203.2,354c0-4.7,3.8-8.5,8.5-8.5c4.7,0,8.5,3.8,8.5,8.5c0,4.7-3.8,8.5-8.5,8.5C207,362.6,203.2,358.7,203.2,354z M211.7,311.3
	c23.6,0,42.7,19.1,42.7,42.7c0,7.5-2,14.9-5.7,21.4c-4.5-3.5-9.5-6.4-14.8-8.5c7.1-12.2,2.9-27.9-9.3-35c-12.2-7.1-27.9-2.9-35,9.3
	c-4.6,7.9-4.6,17.8,0,25.7c-5.3,2.1-10.3,5-14.8,8.5c-11.8-20.4-4.8-46.5,15.6-58.3C196.8,313.3,204.2,311.3,211.7,311.3z"/>
<path class="st0" d="M126.3,456.5c0,4.7,3.8,8.5,8.5,8.5h187.9c4.7,0,8.5-3.8,8.5-8.5s-3.8-8.5-8.5-8.5H134.9
	C130.1,448,126.3,451.8,126.3,456.5z"/>
<path class="st0" d="M322.8,482.2H134.9c-4.7,0-8.5,3.8-8.5,8.5s3.8,8.5,8.5,8.5h187.9c4.7,0,8.5-3.8,8.5-8.5
	S327.5,482.2,322.8,482.2z"/>
<path class="st0" d="M322.8,516.3H134.9c-4.7,0-8.5,3.8-8.5,8.5s3.8,8.5,8.5,8.5h187.9c4.7,0,8.5-3.8,8.5-8.5
	S327.5,516.3,322.8,516.3z"/>
<path class="st0" d="M322.8,550.5H134.9c-4.7,0-8.5,3.8-8.5,8.5s3.8,8.5,8.5,8.5h187.9c4.7,0,8.5-3.8,8.5-8.5
	S327.5,550.5,322.8,550.5z"/>
<circle class="st0" cx="100.7" cy="456.5" r="8.5"/>
<circle class="st0" cx="100.7" cy="490.7" r="8.5"/>
<circle class="st0" cx="100.7" cy="524.9" r="8.5"/>
<circle class="st0" cx="100.7" cy="559" r="8.5"/>
</svg>
