<?xml version="1.0" encoding="utf-8"?>
<!-- Generator: Adobe Illustrator 19.0.0, SVG Export Plug-In . SVG Version: 6.00 Build 0)  -->
<svg version="1.1" id="Layer_1" xmlns="http://www.w3.org/2000/svg" xmlns:xlink="http://www.w3.org/1999/xlink" x="0px" y="0px"
	 viewBox="-49 141 512 512" style="enable-background:new -49 141 512 512;" xml:space="preserve">
<style type="text/css">
	.st0{fill:#1C88C6;}
</style>
<g>
	<path class="st0" d="M382.2,200.3h-34.1v-34.1c0-3.9-3.1-7-7-7c0,0,0,0,0,0H114.8c-0.5,0-0.9,0-1.3,0.1h0c-0.6,0.1-1.2,0.3-1.7,0.6
		c-0.1,0.1-0.2,0.1-0.4,0.2c-0.6,0.3-1.1,0.7-1.5,1.1l-83,83c-0.4,0.4-0.8,0.9-1.1,1.5c-0.1,0.1-0.1,0.2-0.2,0.4
		c-0.3,0.5-0.5,1.1-0.6,1.7v0.1c-0.1,0.4-0.1,0.9-0.1,1.3v337.4c0,3.9,3.1,7,7,7h34.1v34.1c0,3.9,3.1,7,7,7c0,0,0,0,0,0h309.4
		c3.9,0,7-3.1,7-7c0,0,0,0,0,0V207.3C389.3,203.5,386.1,200.3,382.2,200.3C382.3,200.3,382.3,200.3,382.2,200.3z M107.8,183.1v59.1
		H48.6L107.8,183.1z M38.7,256.3h76c3.9,0,7-3.1,7-7c0,0,0,0,0,0v-10.9h155.7c3.9,0,7-3.1,7-7s-3.1-7-7-7H121.8v-51.2h212.3v406.4
		H38.7V256.3z M375.2,620.8H79.9v-27.1h261.3c3.9,0,7-3.1,7-7c0,0,0,0,0,0V214.3h27.1V620.8z"/>
	<path class="st0" d="M95.4,335.1h182c3.9,0,7-3.1,7-7c0-3.9-3.1-7-7-7h-182c-3.9,0-7,3.1-7,7C88.4,332,91.6,335.1,95.4,335.1z"/>
	<path class="st0" d="M95.4,383.4h182c3.9,0,7-3.1,7-7s-3.1-7-7-7h-182c-3.9,0-7,3.1-7,7S91.6,383.4,95.4,383.4z"/>
	<path class="st0" d="M95.4,431.8h182c3.9,0,7-3.1,7-7s-3.1-7-7-7h-182c-3.9,0-7,3.1-7,7S91.6,431.8,95.4,431.8z"/>
	<path class="st0" d="M95.4,480.1h182c3.9,0,7-3.1,7-7s-3.1-7-7-7h-182c-3.9,0-7,3.1-7,7S91.6,480.1,95.4,480.1z"/>
	<path class="st0" d="M95.4,528.5h182c3.9,0,7-3.1,7-7c0-3.9-3.1-7-7-7h-182c-3.9,0-7,3.1-7,7C88.4,525.3,91.6,528.5,95.4,528.5z"/>
	<path class="st0" d="M95.4,286.8h182c3.9,0,7-3.1,7-7c0-3.9-3.1-7-7-7h-182c-3.9,0-7,3.1-7,7C88.4,283.6,91.6,286.8,95.4,286.8z"/>
</g>
</svg>
