<?xml version="1.0" encoding="utf-8"?>
<!-- Generator: Adobe Illustrator 19.0.0, SVG Export Plug-In . SVG Version: 6.00 Build 0)  -->
<svg version="1.1" id="Capa_1" xmlns="http://www.w3.org/2000/svg" xmlns:xlink="http://www.w3.org/1999/xlink" x="0px" y="0px"
	 viewBox="-65 157.3 479.7 479.7" style="enable-background:new -65 157.3 479.7 479.7;" xml:space="preserve">
<style type="text/css">
	.st0{fill:#1C88C6;}
</style>
<g>
	<g>
		<g>
			<path class="st0" d="M390.7,320.3h-46l-12.9-97.5c-1.9-13.1-13.9-22.3-27-20.6l-348.9,46.2c-6.3,0.8-12,4.2-15.9,9.3
				c-3.9,5-5.6,11.4-4.7,17.7l29.4,222c1.6,12,11.8,20.9,23.8,20.9c1,0,2.1-0.1,3.1-0.2l23.1-3v53.2c0,13.3,10.7,24,24,24h352
				c13.3,0,24-10.7,24-24v-224C414.7,331,403.9,320.3,390.7,320.3z M328.5,320.3H266l61.4-8.1L328.5,320.3z M-48.9,273.3
				c-0.3-2.1,0.3-4.2,1.6-5.9c1.3-1.7,3.2-2.8,5.3-3.1l348.8-46.2c4.4-0.6,8.4,2.5,9,6.9l3.2,23.8l-364.8,48.4L-48.9,273.3z
				 M14.7,499l-25.2,3.3c-4.4,0.6-8.4-2.5-9-6.9c0,0,0,0,0,0l-17.8-134.9l52-6.9V499z M15.7,337.4l-55.2,7.3l-4.2-31.6l364.8-48.4
				l2.4,18.3l1.8,13.3l-181,24H38.7C28.1,320.3,18.8,327.3,15.7,337.4z M398.7,568.3c0,4.4-3.6,8-8,8h-352c-4.4,0-8-3.6-8-8V344.5
				c0-0.1,0-0.2,0-0.2c0-4.4,3.6-8,8-8h352c4.4,0,8,3.6,8,8V568.3z"/>
			<path class="st0" d="M286.2,440.5c3.2-2.4,6.1-5.2,8.4-8.4c13.2,17.7,38.2,21.4,55.9,8.2c17.7-13.2,21.4-38.2,8.2-55.9
				c-7.5-10.2-19.5-16.1-32.1-16.1c-12.6,0-24.5,6.1-32,16.2c-13.1-17.8-38.2-21.5-55.9-8.4c-17.8,13.1-21.5,38.2-8.4,55.9
				C243.4,449.8,268.5,453.6,286.2,440.5z M326.7,384.3c13.3,0,24,10.7,24,24c0,13.3-10.7,24-24,24s-24-10.7-24-24
				S313.4,384.3,326.7,384.3z M262.7,384.3c13.3,0,24,10.7,24,24c0,13.3-10.7,24-24,24s-24-10.7-24-24S249.4,384.3,262.7,384.3z"/>
			<rect x="62.7" y="376.3" class="st0" width="16" height="16"/>
			<rect x="94.7" y="376.3" class="st0" width="96" height="16"/>
			<rect x="62.7" y="408.3" class="st0" width="128" height="16"/>
			<path class="st0" d="M358.7,480.3h-288c-4.4,0-8,3.6-8,8v48c0,4.4,3.6,8,8,8h288c4.4,0,8-3.6,8-8v-48
				C366.7,483.9,363.1,480.3,358.7,480.3z M350.7,528.3h-272v-32h272V528.3z"/>
		</g>
	</g>
</g>
</svg>
