<?xml version="1.0" encoding="utf-8"?>
<!-- Generator: Adobe Illustrator 19.0.0, SVG Export Plug-In . SVG Version: 6.00 Build 0)  -->
<svg version="1.1" id="Layer_1" xmlns="http://www.w3.org/2000/svg" xmlns:xlink="http://www.w3.org/1999/xlink" x="0px" y="0px"
	 viewBox="-49 141 512 512" style="enable-background:new -49 141 512 512;" xml:space="preserve">
<style type="text/css">
	.st0{fill:#1C88C6;}
</style>
<path class="st0" d="M448,558h-80.2v80.2H-34v-61.6h-15v76.6h427.4l84.6-84.6V343.2h-15V558z M382.8,627.5V573h54.5L382.8,627.5z"/>
<path class="st0" d="M414.9,181.3v-12.5c0-15.2-12.4-27.6-27.6-27.6s-27.6,12.4-27.6,27.6v12.5h-35.1v-12.5
	c0-15.2-12.4-27.6-27.6-27.6s-27.6,12.4-27.6,27.6v12.5h-35.1v-12.5c0-15.2-12.4-27.6-27.6-27.6s-27.6,12.4-27.6,27.6v12.5H144
	v-12.5c0-15.2-12.4-27.6-27.6-27.6s-27.6,12.4-27.6,27.6v12.5H54.2v-12.5c0-15.2-12.4-27.6-27.6-27.6S-1,153.6-1,168.8v12.5h-48
	v380.2h15v-255h353.2v-15H-34v-95.2h33.1v12.5c0,15.2,12.4,27.6,27.6,27.6s27.6-12.4,27.6-27.6v-12.5h35.1v12.5
	c0,15.2,12.4,27.6,27.6,27.6s27.6-12.4,27.6-27.6v-12.5h35.1v12.5c0,15.2,12.4,27.6,27.6,27.6s27.6-12.4,27.6-27.6v-12.5H270v12.5
	c0,15.2,12.4,27.6,27.6,27.6s27.6-12.4,27.6-27.6v-12.5h35.1v12.5c0,15.2,12.4,27.6,27.6,27.6s27.6-12.4,27.6-27.6v-12.5H448v95.2
	H334.3v15H448v21.7h15V181.3H414.9z M39.2,208.8c0,6.9-5.6,12.5-12.5,12.5s-12.5-5.6-12.5-12.5v-40.1c0-6.9,5.6-12.5,12.5-12.5
	s12.5,5.6,12.5,12.5V208.8z M129.3,208.8c0,6.9-5.6,12.5-12.5,12.5s-12.5-5.6-12.5-12.5v-40.1c0-6.9,5.6-12.5,12.5-12.5
	s12.5,5.6,12.5,12.5V208.8z M219.5,208.8c0,6.9-5.6,12.5-12.5,12.5s-12.5-5.6-12.5-12.5v-40.1c0-6.9,5.6-12.5,12.5-12.5
	s12.5,5.6,12.5,12.5V208.8z M309.7,208.8c0,6.9-5.6,12.5-12.5,12.5s-12.5-5.6-12.5-12.5v-40.1c0-6.9,5.6-12.5,12.5-12.5
	s12.5,5.6,12.5,12.5V208.8z M399.9,208.8c0,6.9-5.6,12.5-12.5,12.5s-12.5-5.6-12.5-12.5v-40.1c0-6.9,5.6-12.5,12.5-12.5
	s12.5,5.6,12.5,12.5V208.8z"/>
<path class="st0" d="M116.5,375.2l-10.2-11c-3.9,3.6-7.5,7.4-11,11.4l11.4,9.8C109.8,381.8,113.1,378.4,116.5,375.2z"/>
<path class="st0" d="M59.2,472.3c0,81.9,66.9,148.4,149,147.8c80.4-0.6,146-66.3,146.6-146.6c0.6-82-65.9-148.9-147.8-148.9
	c-32.2,0-62.9,10.2-88.6,29.5l9,12c22.4-16.8,49-25.9,77-26.4c73.2-1.4,134.1,57.4,135.3,130.6c1.2,74.6-59.5,135.6-134,134.9
	c-70.5-0.7-128.6-57-131.4-127.5c-1.1-29.1,7.1-57.3,23.6-81l-12.3-8.6C68.3,412.9,59.2,442,59.2,472.3z"/>
<path class="st0" d="M164.4,384.7v45.1h-45.1V515h45.1v45.1h85.2V515h45.1v-85.2h-45.1v-45.1L164.4,384.7L164.4,384.7z M279.6,444.8
	v55.1h-45.1V545h-55.1v-45.1h-45.1v-55.1h45.1v-45.1h55.1v45.1L279.6,444.8L279.6,444.8z"/>
<path class="st0" d="M169.4,256.4h15v15h-15V256.4z"/>
<path class="st0" d="M199.5,256.4h15v15h-15V256.4z"/>
<path class="st0" d="M229.5,256.4h15v15h-15V256.4z"/>
<path class="st0" d="M319.5,291.4h15v15h-15V291.4z"/>
<path class="st0" d="M310.5,291.4h15v15h-15V291.4z"/>
<path class="st0" d="M448,328.2h15v15h-15V328.2z"/>
<path class="st0" d="M-49,555.5h15v15h-15V555.5z"/>
<path class="st0" d="M-49,565.5h15v15h-15V565.5z"/>
<path class="st0" d="M93.9,377.1l12,9.1l-9.1,12l-12-9.1L93.9,377.1z"/>
<path class="st0" d="M99.6,370.6l11.3,9.9l-9.9,11.3l-11.3-9.9L99.6,370.6z"/>
<path class="st0" d="M120.3,352.3l9.2,11.9l-14.6,11.2l-9.2-11.9L120.3,352.3z"/>
</svg>
