<?xml version="1.0" encoding="utf-8"?>
<!-- Generator: Adobe Illustrator 19.0.0, SVG Export Plug-In . SVG Version: 6.00 Build 0)  -->
<svg version="1.1" id="Capa_1" xmlns="http://www.w3.org/2000/svg" xmlns:xlink="http://www.w3.org/1999/xlink" x="0px" y="0px"
	 viewBox="-49 141 512 512" style="enable-background:new -49 141 512 512;" xml:space="preserve">
<style type="text/css">
	.st0{fill:#FFFFFF;}
	.st1{fill:#F4F8FF;}
	.st2{fill:#1C88C6;}
</style>
<path class="st0" d="M217,627.9L217,627.9c20.3,20.3,53.2,20.3,73.5,0l79.2-79.2c20.3-20.3,20.3-53.2,0-73.5l0,0
	c-20.3-20.3-53.2-20.3-73.5,0L217,554.4C196.7,574.7,196.7,607.6,217,627.9z"/>
<g>
	<path class="st0" d="M401,643c-28.7,0-52-23.3-52-52c0-28.7,23.3-52,52-52s52,23.3,52,52C453,619.7,429.7,643,401,643z"/>
	<path class="st0" d="M453,591c0-28.7-23.3-52-52-52s-52,23.3-52,52c0,28.7,23.3,52,52,52S453,619.7,453,591z"/>
</g>
<path class="st1" d="M401,643c28.7,0,52-23.3,52-52c0-28.7-23.3-52-52-52L401,643L401,643z"/>
<path class="st2" d="M116.4,313H143v26.6c0,5.5,4.5,10,10,10s10-4.5,10-10V313h26.6c5.5,0,10-4.5,10-10c0-5.5-4.5-10-10-10H163
	v-26.6c0-5.5-4.5-10-10-10s-10,4.5-10,10V293h-26.6c-5.5,0-10,4.5-10,10C106.4,308.6,110.9,313,116.4,313z"/>
<path class="st2" d="M153,391c48.5,0,88-39.5,88-88s-39.5-88-88-88s-88,39.5-88,88S104.5,391,153,391z M153,235
	c37.5,0,68,30.5,68,68s-30.5,68-68,68s-68-30.5-68-68S115.5,235,153,235z"/>
<path class="st2" d="M172,633H-19c-5.5,0-10-4.5-10-10V171c0-5.5,4.5-10,10-10h265v59c0,16.5,13.5,30,30,30h59v178
	c0,5.5,4.5,10,10,10c5.5,0,10-4.5,10-10V240c0-2.7-1.1-5.2-2.9-7.1l-89-89c-1.9-1.9-4.4-2.9-7.1-2.9H-19c-16.5,0-30,13.5-30,30v452
	c0,16.5,13.5,30,30,30h191c5.5,0,10-4.5,10-10C182,637.5,177.5,633,172,633z M266,220v-44.9l54.9,54.9H276
	C270.5,230,266,225.5,266,220z"/>
<path class="st2" d="M291,431c0-5.5-4.5-10-10-10H107.3c-5.5,0-10,4.5-10,10c0,5.5,4.5,10,10,10H281C286.5,441,291,436.5,291,431z"
	/>
<path class="st2" d="M57.6,421H25c-5.5,0-10,4.5-10,10c0,5.5,4.5,10,10,10h32.6c5.5,0,10-4.5,10-10C67.6,425.5,63.1,421,57.6,421z"
	/>
<path class="st2" d="M217,487c0-5.5-4.5-10-10-10h-99.7c-5.5,0-10,4.5-10,10c0,5.5,4.5,10,10,10H207C212.5,497,217,492.5,217,487z"
	/>
<path class="st2" d="M57.6,477H25c-5.5,0-10,4.5-10,10c0,5.5,4.5,10,10,10h32.6c5.5,0,10-4.5,10-10C67.6,481.5,63.1,477,57.6,477z"
	/>
<path class="st2" d="M100.3,535.9c-1.9,1.9-2.9,4.4-2.9,7.1s1.1,5.2,2.9,7.1c1.9,1.9,4.4,2.9,7.1,2.9c2.6,0,5.2-1.1,7.1-2.9
	c1.9-1.9,2.9-4.4,2.9-7.1s-1.1-5.2-2.9-7.1c-1.9-1.9-4.4-2.9-7.1-2.9C104.7,533,102.1,534.1,100.3,535.9z"/>
<path class="st2" d="M57.6,533H25c-5.5,0-10,4.5-10,10s4.5,10,10,10h32.6c5.5,0,10-4.5,10-10S63.1,533,57.6,533z"/>
<path class="st2" d="M401,529c-2.9,0-5.8,0.2-8.6,0.6c6.3-21.1,1.1-45-15.5-61.6c-11.7-11.7-27.3-18.2-43.8-18.2
	c-16.6,0-32.1,6.4-43.8,18.2L210,547.1c-11.7,11.7-18.2,27.3-18.2,43.8c0,16.6,6.4,32.1,18.2,43.8c12.1,12.1,28,18.1,43.8,18.1
	c15.9,0,31.8-6,43.8-18.1l41.4-41.4c1.3,33.1,28.6,59.6,61.9,59.6c34.2,0,62-27.8,62-62S435.2,529,401,529z M303.3,482.1
	c7.9-7.9,18.5-12.3,29.7-12.3s21.8,4.4,29.7,12.3c16.4,16.4,16.4,43,0,59.4L330.2,574l-59.4-59.4L303.3,482.1z M283.5,620.7
	c-16.4,16.4-43,16.4-59.4,0c-7.9-7.9-12.3-18.5-12.3-29.7s4.4-21.8,12.3-29.7l32.5-32.5l59.4,59.4L283.5,620.7z M359,591
	c0-19.7,13.7-36.3,32-40.8v81.6C372.7,627.3,359,610.7,359,591z M411,631.8v-81.6c18.3,4.5,32,21.1,32,40.8S429.3,627.3,411,631.8z"
	/>
</svg>
