<?xml version="1.0" encoding="utf-8"?>
<!-- Generator: Adobe Illustrator 19.0.0, SVG Export Plug-In . SVG Version: 6.00 Build 0)  -->
<svg version="1.1" id="OBJECTS" xmlns="http://www.w3.org/2000/svg" xmlns:xlink="http://www.w3.org/1999/xlink" x="0px" y="0px"
	 viewBox="0 0 396.1 406.9" style="enable-background:new 0 0 396.1 406.9;" xml:space="preserve">
<style type="text/css">
	.st0{fill:#D4ECFF;}
	.st1{fill:#8DC63F;}
	.st2{fill:#7CB332;}
	.st3{fill:#1C75BC;}
	.st4{fill:#155F99;}
	.st5{fill:#808285;}
	.st6{fill:#BCBEC0;}
	.st7{fill:#D1D3D4;}
	.st8{fill:#519BD6;}
	.st9{fill:#FFFFFF;}
	.st10{fill:#E6E7E8;}
	.st11{fill:#1C88C6;}
	.st12{fill:#092942;}
	.st13{fill:#FBB040;}
	.st14{fill:#F98C6E;}
	.st15{fill:#9C681C;}
	.st16{fill:#39B54A;}
	.st17{opacity:0.25;fill:#231F20;}
	.st18{fill:#E67A5C;}
	.st19{fill:#051D2E;}
	.st20{fill:#0E4066;}
	.st21{fill:#D1684B;}
	.st22{fill:#92C6F0;}
	.st23{fill:#A6D7FF;}
</style>
<g>
	<path class="st0" d="M348.3,317c27.3-31.7,43.7-72.9,43.7-118c0-100-81.1-181.1-181.1-181.1S29.8,99,29.8,199
		c0,45.1,16.5,86.3,43.7,118H348.3z"/>
	<g>
		<g>
			<ellipse class="st0" cx="103.6" cy="370.7" rx="37.1" ry="8.4"/>
			<path class="st0" d="M339.4,378.9c-7.7,0-15.1,0.2-21.8,0.6c4.7-1.3,7.4-2.8,7.4-4.4c0-5.1-27.1-9.2-60.6-9.2
				c-33.5,0-60.6,4.1-60.6,9.2c0,5.1,27.1,9.2,60.6,9.2c8.6,0,16.8-0.3,24.2-0.8c-3.7,1.1-5.7,2.4-5.7,3.7c0,4.6,25.4,8.4,56.7,8.4
				c31.3,0,56.7-3.7,56.7-8.4C396.1,382.7,370.7,378.9,339.4,378.9z"/>
			<path class="st0" d="M175.9,383.7c-1.1,0-2.2,0-3.3,0c2.2-1,3.3-2.1,3.3-3.2c0-4.9-23-9-51.3-9c-28.3,0-51.3,4-51.3,9
				c0,4.9,22.8,8.9,50.9,9c-5.1,1.7-8,3.7-8,5.8c0,6.4,26.7,11.6,59.7,11.6c33,0,59.7-5.2,59.7-11.6
				C235.6,388.9,208.9,383.7,175.9,383.7z"/>
			<ellipse class="st0" cx="382.4" cy="370.6" rx="12.3" ry="3.4"/>
			<ellipse class="st0" cx="356.5" cy="364.6" rx="5.5" ry="1.4"/>
			<ellipse class="st0" cx="188" cy="366.9" rx="6.1" ry="1.8"/>
			<ellipse class="st0" cx="211.9" cy="361" rx="3.8" ry="1.3"/>
		</g>
	</g>
	<g>
		<path class="st1" d="M66.5,361.4c-5.9-16.8-11.8-33.7-21.1-48.9c-9.3-15.2-22.3-28.7-38.7-35.4c5.6,21.4,11.2,43.9,25.6,60.6
			C41.6,348.3,53.8,355,66.5,361.4z"/>
		<path class="st2" d="M60.6,347.5c-3.7-7-7.6-13.9-11.6-20.6c-2.3-3.7-4.6-7.4-7-11.1c-5.2-7.8-11.2-15.5-19.4-20
			c3.3,8.7,6.6,17.3,10.2,25.9c2.9,6.7,6,13.3,10.3,19.2c3.5,4.8,7.8,9,12.4,12.8c2.3,1.9,4.7,3.8,7.1,5.5c0,0,0.1,0.1,0.1,0.1
			c1.3,0.7,2.6,1.3,3.9,2c-1-2.8-1.9-5.5-2.9-8.3C62.6,351.3,61.6,349.4,60.6,347.5z"/>
	</g>
	<g>
		<path class="st1" d="M60.2,357.1c-8.6-7.7-17.2-15.5-27.2-21.2c-10-5.7-21.6-9.4-33-8.1c9.8,10.4,20,21.5,33.4,26.4
			C42,357.4,51.1,357.4,60.2,357.1z"/>
		<path class="st2" d="M52.6,351.1c-4.3-2.8-8.6-5.5-13-8.1c-2.5-1.4-4.9-2.8-7.4-4.1c-5.4-2.8-11.2-5.4-17.3-5.3
			c4.6,3.9,9.1,7.8,13.9,11.5c3.7,2.9,7.5,5.7,11.8,7.7c3.5,1.6,7.2,2.7,11,3.4c1.9,0.4,3.8,0.7,5.8,0.9c0,0,0.1,0,0.1,0
			c0.9,0,1.9,0,2.8-0.1c-1.4-1.3-2.8-2.5-4.2-3.8C54.9,352.6,53.7,351.8,52.6,351.1z"/>
	</g>
	<g>
		<path class="st1" d="M55.2,319.4c-0.4-11.5-0.9-23.1-3.7-34.3s-8.3-22-17.2-29.3c-0.6,14.3-1.5,29.3,4.3,42.4
			C42.3,306.5,48.6,313,55.2,319.4z"/>
		<path class="st2" d="M54.2,309.7c-1-5-2-10-3.3-15c-0.7-2.8-1.4-5.5-2.2-8.2c-1.7-5.8-3.9-11.8-8.2-16.1c0.4,6,0.8,12,1.4,18
			c0.5,4.7,1.1,9.4,2.7,13.8c1.3,3.7,3.1,7.1,5.2,10.3c1.1,1.6,2.2,3.2,3.3,4.8c0,0,0,0,0,0.1c0.7,0.7,1.4,1.3,2,2
			c-0.1-1.9-0.1-3.8-0.2-5.7C54.7,312.3,54.5,311,54.2,309.7z"/>
	</g>
	<g>
		<path class="st1" d="M257.4,338.5c6.9-9.2,13.8-18.6,18.6-29.1c4.8-10.5,7.3-22.4,4.9-33.6c-9.4,10.8-19.5,21.9-23.2,35.7
			C255.4,320.4,256.2,329.4,257.4,338.5z"/>
		<path class="st2" d="M262.7,330.3c2.4-4.5,4.7-9.1,6.8-13.7c1.2-2.6,2.3-5.2,3.4-7.8c2.3-5.6,4.3-11.6,3.6-17.7
			c-3.5,4.9-6.9,9.8-10.2,14.9c-2.5,4-5,8-6.6,12.5c-1.3,3.6-2,7.5-2.4,11.3c-0.2,1.9-0.3,3.9-0.4,5.8c0,0,0,0.1,0,0.1
			c0.1,0.9,0.2,1.9,0.3,2.8c1.1-1.5,2.3-3,3.4-4.6C261.4,332.8,262.1,331.6,262.7,330.3z"/>
	</g>
	<g>
		<path class="st1" d="M262.4,315.2c3.5-9.3,7-18.7,8.5-28.5c1.5-9.8,0.7-20.2-3.9-29c-5.2,11.2-10.9,22.8-10.7,35.1
			C256.4,300.7,259.3,307.9,262.4,315.2z"/>
		<path class="st2" d="M264.9,307.1c0.9-4.3,1.7-8.6,2.4-13c0.4-2.4,0.7-4.8,0.9-7.3c0.6-5.2,0.8-10.6-1.2-15.5
			c-1.7,4.9-3.4,9.8-4.9,14.7c-1.2,3.9-2.2,7.8-2.5,11.9c-0.2,3.3,0.1,6.7,0.7,9.9c0.3,1.6,0.7,3.3,1.1,4.9c0,0,0,0,0,0.1
			c0.3,0.8,0.6,1.5,1,2.3c0.6-1.5,1.1-3,1.7-4.6C264.4,309.4,264.6,308.3,264.9,307.1z"/>
	</g>
	<path class="st3" d="M261.8,119.2c-7.3-9.7-17-17.7-28-23c-2.1,28.2-3.2,56.6-2.6,84.9c7.6-4,15-8.3,21.4-14.1
		c6.3-5.8,11.6-13,13.7-21.3C268.7,136.2,267,126,261.8,119.2z"/>
	<path class="st4" d="M235.2,96.9c-0.8,0.9-1.4,2-1.7,3.2c0,0,0,0,0,0.1c-0.2,3.2-0.4,6.4-0.6,9.6c-0.1,11.2-0.2,22.4-0.3,33.6
		c0,5.7-0.1,11.5,2,16.8c1,2.6,2.5,4.9,4.2,7.1c1,1.2,3.4,5.2,5.4,4.7c1.7-0.4,2.3-6,2.8-7.6c0.9-3.1,2-6.1,3.1-9.2
		c0.6-1.6,1.2-3.2,1.3-4.9c0-1.6-0.5-3.2-1-4.8c-3-9-5.9-18.1-6.8-27.5c-0.5-5.4-0.3-10.8,0-16.2C241,100.1,238.2,98.4,235.2,96.9z"
		/>
	<g>
		<path class="st5" d="M91.3,42.1c0,0-9.4-0.8-18.1,12.5c22.5-5.1,34.6-0.9,34.6-0.9S101.5,41.4,91.3,42.1z"/>
		<path class="st6" d="M150,43.6c-3.9-4.6-7.2-9.7-9.9-15.1c4-3.6,4.4-10.6,2.8-15.8C141.3,7.6,137,3.5,132,1.6
			c-5-2-10.7-2-15.9-0.6c-6.3,1.6-12.4,5.6-14.9,11.6c-2.5,6-0.3,14.1,5.6,16.8c-2.9,8-6.9,15.9-12.4,22.4
			c15.7,0.1,31.5,0.3,47.2-0.2c2.6-0.1,5.3-0.2,7.4-1.6C151.3,48.5,151.6,45.5,150,43.6z M131.5,21.9c-2.9,2-6.7,2.3-10,1
			c-1.9-0.8-3.7-2.1-4.5-4c-0.8-1.8-0.8-3.9-0.2-5.7c0.6-2,1.8-3.7,3.4-4.9c2.1-1.7,13-4.6,15.5,4.3C136.6,16,134.4,19.9,131.5,21.9
			z"/>
		<path class="st7" d="M107.6,51.8c2.1-7.7,4.8-15.2,8.3-22.4c-6.1-1.9-10.6-7.9-10.8-14.3c-0.1-4.9,2.5-9.7,6.4-12.6
			c-4.5,2.1-8.4,5.4-10.3,10c-2.5,6-0.3,14.1,5.6,16.8c-2.9,8-6.9,15.9-12.4,22.4C98.9,51.8,103.2,51.8,107.6,51.8z"/>
		<g>
			<polygon class="st3" points="33.4,47.1 236.4,47.1 262.3,343 61.8,367.2 			"/>
			<path class="st4" d="M184.3,78c0,0,18.3-6.8,12.4-30.9h-25.4L184.3,78z"/>
			<polygon class="st8" points="33.4,47.1 25.8,52.6 54.3,364.2 61.8,367.2 			"/>
			<path class="st4" d="M262.3,343l-17.9-204l-14.3-79.5L50.6,56c0,0-1.9,233.7,34.7,308.4L262.3,343z"/>
		</g>
		<path class="st9" d="M54.2,61.7c60.4-1.1,120.7-2.2,181.1-3.2c6,89.2,16.5,178,33.8,265.7c-60.3,1.8-120.8,10.3-180,21.6
			C72.5,285.7,54.2,115,54.2,61.7z"/>
		<path class="st10" d="M176.5,59.5l7.8,18.5c0,0,12-4.4,13.4-18.8C190.6,59.3,183.6,59.4,176.5,59.5z"/>
		<path class="st5" d="M110.8,44.3c12.8-0.6,25.6-1.2,38.4-1.7c-2.5-3.1-4.8-6.3-6.7-9.7c-4.4,0.3-8.7,1.3-12.9,2.6
			C122.9,37.6,116.7,40.8,110.8,44.3z"/>
		<g>
			<path class="st6" d="M101.2,77.9l83.1,0.1c4.4-9.5,2.5-20.9-1-31.1c-1.1-3.4-4.1-5.8-7.7-6.1c-27-2.5-54.6-2.7-84.3,1.3
				C100.5,46.9,102,64.6,101.2,77.9z"/>
			<path class="st7" d="M185.5,54.7l-85.9,0.2c1.3,5,1.8,10.7,1.8,16.2l85.1-0.4C187.2,65.5,186.7,60.1,185.5,54.7z"/>
			<path class="st7" d="M139.1,40.9c-5.1,0.1-10.3,0.4-14.9,2.5c-0.8,0.4-1.8,1-1.6,1.9c0.1,0.8,1,1.1,1.8,1.3
				c11.7,3.1,23.9,2.9,35.9,2c2.4-0.2,14.4,0.2,13.9-3c-0.7-4.3-11.2-3.8-14.1-4C153.1,41,146.1,40.7,139.1,40.9z"/>
			<ellipse class="st7" cx="113.2" cy="45.4" rx="5.8" ry="2.3"/>
		</g>
		<g>
			<path class="st6" d="M227.7,144.1l-32.9,1.7l-6.3-39.9l32.9-1.7L227.7,144.1z M198.2,141.6l24.9-1.3l-5-31.9l-24.9,1.3
				L198.2,141.6z"/>
		</g>
		<g>
			<path class="st6" d="M237.7,213.7l-32.9,1.5l-6.1-39.9l32.9-1.5L237.7,213.7z M208.2,211l24.9-1.1l-4.9-32l-24.9,1.1L208.2,211z"
				/>
		</g>
		<g>
			<path class="st6" d="M217.8,285l-6.8-39.8l32.9-2.1l6.8,39.8L217.8,285z M215.6,249l5.5,31.9l24.8-1.6l-5.5-31.9L215.6,249z"/>
		</g>
		<g>
			<g>
				<path class="st5" d="M73.3,128.4c-1.3,0-2.5-1.1-2.5-2.4c0-1.4,1-2.5,2.4-2.6l103.6-3.3c1.4,0,2.5,1,2.6,2.4
					c0,1.4-1,2.5-2.4,2.6L73.3,128.4C73.3,128.4,73.3,128.4,73.3,128.4z"/>
			</g>
			<g>
				<path class="st5" d="M75.3,138.9c-1.3,0-2.5-1.1-2.5-2.4c0-1.4,1-2.5,2.4-2.6l103.6-3.3c1.4,0,2.5,1,2.6,2.4
					c0,1.4-1,2.5-2.4,2.6L75.3,138.9C75.3,138.9,75.3,138.9,75.3,138.9z"/>
			</g>
			<g>
				<path class="st5" d="M77.3,149.3c-1.3,0-2.5-1.1-2.5-2.4c0-1.4,1-2.5,2.4-2.6l51.8-1.7c1.4,0,2.5,1,2.6,2.4c0,1.4-1,2.5-2.4,2.6
					L77.3,149.3C77.3,149.3,77.3,149.3,77.3,149.3z"/>
			</g>
			<g>
				<path class="st11" d="M71,117.9c-1.3,0-2.5-1.1-2.5-2.4c0-1.4,1-2.5,2.4-2.6l51.8-1.7c1.4,0,2.5,1,2.6,2.4c0,1.4-1,2.5-2.4,2.6
					L71,117.9C71,117.9,71,117.9,71,117.9z"/>
			</g>
		</g>
		<g>
			<g>
				<path class="st5" d="M87.3,203.4c-1.3,0-2.4-1-2.5-2.3c-0.1-1.4,0.9-2.6,2.3-2.7l103.2-9.7c1.4-0.1,2.6,0.9,2.7,2.3
					c0.1,1.4-0.9,2.6-2.3,2.7l-103.2,9.7C87.4,203.4,87.3,203.4,87.3,203.4z"/>
			</g>
			<g>
				<path class="st5" d="M89.9,213.8c-1.3,0-2.4-1-2.5-2.3c-0.1-1.4,0.9-2.6,2.3-2.7l103.2-9.7c1.4-0.1,2.6,0.9,2.7,2.3
					c0.1,1.4-0.9,2.6-2.3,2.7l-103.2,9.7C90.1,213.7,90,213.8,89.9,213.8z"/>
			</g>
			<g>
				<path class="st5" d="M92.6,224.1c-1.3,0-2.4-1-2.5-2.3c-0.1-1.4,0.9-2.6,2.3-2.7l51.6-4.9c1.4-0.1,2.6,0.9,2.7,2.3
					c0.1,1.4-0.9,2.6-2.3,2.7l-51.6,4.9C92.7,224.1,92.6,224.1,92.6,224.1z"/>
			</g>
			<g>
				<path class="st11" d="M84.3,193.1c-1.3,0-2.4-1-2.5-2.3c-0.1-1.4,0.9-2.6,2.3-2.7l51.6-4.9c1.4-0.1,2.6,0.9,2.7,2.3
					c0.1,1.4-0.9,2.6-2.3,2.7l-51.6,4.9C84.5,193.1,84.4,193.1,84.3,193.1z"/>
			</g>
		</g>
		<g>
			<g>
				<path class="st5" d="M99.5,276.6c-1.3,0-2.3-0.9-2.5-2.2c-0.2-1.4,0.8-2.6,2.2-2.8l103-11.4c1.4-0.2,2.6,0.8,2.8,2.2
					c0.2,1.4-0.8,2.6-2.2,2.8l-103,11.4C99.7,276.6,99.6,276.6,99.5,276.6z"/>
			</g>
			<g>
				<path class="st5" d="M102.3,286.9c-1.3,0-2.3-0.9-2.5-2.2c-0.2-1.4,0.8-2.6,2.2-2.8l103-11.4c1.4-0.2,2.6,0.8,2.8,2.2
					c0.2,1.4-0.8,2.6-2.2,2.8l-103,11.4C102.5,286.9,102.4,286.9,102.3,286.9z"/>
			</g>
			<g>
				<path class="st5" d="M105.2,297.2c-1.3,0-2.3-0.9-2.5-2.2c-0.2-1.4,0.8-2.6,2.2-2.8l51.5-5.7c1.4-0.2,2.6,0.8,2.8,2.2
					c0.2,1.4-0.8,2.6-2.2,2.8l-51.5,5.7C105.3,297.1,105.2,297.2,105.2,297.2z"/>
			</g>
			<g>
				<path class="st11" d="M96.4,266.3c-1.3,0-2.3-0.9-2.5-2.2c-0.2-1.4,0.8-2.6,2.2-2.8l51.5-5.7c1.4-0.2,2.6,0.8,2.8,2.2
					c0.2,1.4-0.8,2.6-2.2,2.8l-51.5,5.7C96.6,266.3,96.5,266.3,96.4,266.3z"/>
			</g>
		</g>
		<path class="st11" d="M186.9,109.9c7.1,2.3,13.8,5.5,19.2,11.2c7-9,13.4-17.2,23.3-24.3c-9.4,11.4-16.7,23.9-21.6,37.1
			C203.1,125.1,195.9,116.5,186.9,109.9z"/>
		<path class="st11" d="M197,182.7c7.1,2.3,13.8,5.5,19.2,11.2c7-9,13.4-17.2,23.3-24.3c-9.4,11.4-16.7,23.9-21.6,37.1
			C213.3,197.9,206,189.3,197,182.7z"/>
		<path class="st11" d="M209.6,250.7c7.1,2.3,13.8,5.5,19.2,11.2c7-9,13.4-17.2,23.3-24.3c-9.4,11.4-16.7,23.9-21.6,37.1
			C225.8,265.9,218.5,257.3,209.6,250.7z"/>
	</g>
	<g>
		<path class="st9" d="M270.6,357.1c-6.7,3.2-13.3,6.5-20,9.7c-0.8,0.4-1.7,1-1.6,1.8c0.1,1.1,1.5,1.4,2.5,1.4
			c9.4,0.3,18.8,0.7,28.3,1v-11.5C276.8,359.1,273.3,358.3,270.6,357.1z"/>
		<path class="st9" d="M337.6,375.6c-1.9,3.8-10.7,7.4-16.5,10.2c-0.7,0.3-1.5,0.8-1.4,1.6c0.1,0.9,1.3,1.2,2.2,1.2
			c5.9,0.2,15.2,0.4,23.1,0.6c3.7,0.1,6.1-3.7,4.5-7l-4.5-9.8C342.5,372,340,376.6,337.6,375.6z"/>
		<path class="st12" d="M335.3,200.8c-10.6,3.6-20.9,3.5-30.6,4.8c-1.7,2.4-8.3,12.1-10,14.5c9.2,1.2,18.3,2.3,27.5,3.5
			c1.5,0.2,3,0.4,4.5,0c2.2-0.5,3.9-2.1,5.3-3.8C336.1,214.6,337.2,207.1,335.3,200.8z"/>
		<path class="st12" d="M286.3,186.5c3.6-5.5,8.5-9.2,13.5-8.5c-0.4-0.1-4.3,8.9-4.8,9.9c-1.9,3.2-3.9,6.1-6.1,8.8
			c-2.1,2.6-4.4,4.9-6.8,6.9c-0.7,0.6-2.6,2.8-3.2,1c-0.4-1.1,1.2-4.6,1.6-5.6C282.1,194.5,283.9,190.2,286.3,186.5z"/>
		<g>
			<g>
				<path class="st13" d="M391.6,135.3l-111.7,98.9l-17.7-20l111.7-98.9c5.5-4.9,14-4.4,18.9,1.1v0
					C397.6,121.9,397.1,130.4,391.6,135.3z"/>
				<polygon class="st14" points="262.2,214.1 234.5,256.5 279.9,234.1 				"/>
				
					<rect x="253.9" y="173.5" transform="matrix(0.7488 -0.6628 0.6628 0.7488 -37.6489 258.4495)" class="st15" width="136.5" height="10.7"/>
				<polygon class="st16" points="244.4,241.3 234.5,256.5 250.8,248.5 				"/>
				<path class="st14" d="M373.9,115.2l-11.4,10.1l17.7,20l11.4-10.1c5.5-4.9,6-13.3,1.1-18.9C387.8,110.9,379.4,110.3,373.9,115.2z
					"/>
				
					<rect x="363.8" y="123.8" transform="matrix(0.7487 -0.6629 0.6629 0.7487 1.8139 279.2209)" class="st9" width="10.8" height="26.7"/>
			</g>
			<path class="st17" d="M391.6,135.3c4.5-4,5.7-10.3,3.3-15.5c-0.5-1.2-1.3-2.3-2.2-3.4L234.5,256.5l45.4-22.3L391.6,135.3z"/>
		</g>
		<path class="st18" d="M328.8,192.7c2.6,4.6,2.8,17.2,1.6,22.3c3.9,0.7,8.4-5.6,12.3-4.9c-1.5-4.7-1.9-9.7-1.2-14.5
			c0.2-1.6,0.5-3.4-0.5-4.7c-1.2-1.6-3.8-1.5-5.7-0.7C333.5,190.8,330.9,192.8,328.8,192.7z"/>
		<path class="st12" d="M311.9,264.7c0,0-24.7,23-30,41.3c-5.3,18.3-12.9,49.3-12.9,49.3l13.8,2.7l14.1-43.7l22.3-23.3
			C319.2,291.1,320.3,268.1,311.9,264.7z"/>
		<path class="st19" d="M311.9,264.7c0,0-9.4,8.8-17.9,19.8c1.3,7,3,14,4.5,20.9c0.4,1.9,0.9,3.9,1.4,5.8l19.3-20.2
			C319.2,291.1,320.3,268.1,311.9,264.7z"/>
		<path class="st20" d="M337.7,269.8c-1.3,3.3-10.6,7.6-14.2,8.2c-3.1,0.6-6.3-0.8-8.4-3c-2.2-2.2-4.3-4.9-4.4-8
			c-0.6-45.1,7.8-54.6,15.4-62.1c6.6-6.6,15.6-5.4,20.7,2.3c5.6,8.5,2.6,20,0.4,29.2C344.1,248.8,342.8,256.3,337.7,269.8z"/>
		<path class="st12" d="M328.3,253.1c8.7-12.1,13.5-26.9,13.6-41.8c-2.9,7.9-7.6,14.4-13.4,20.5c-0.9,0.9-1.8,1.9-2.9,2.5
			c-3.2,1.9-7.2,1.4-10.7,0.6c-0.8-0.2-1.6-0.4-2.4-0.6c-0.6,4.2-1.1,9-1.4,14.6C316.6,250.8,322.4,252.1,328.3,253.1z"/>
		<path class="st12" d="M332.9,295.1c3.3-10.2,5.7-15.7,5.3-26.8c-17.1,5.2-27.5-3.6-27.5-3.6c-2.7,24.4-3.3,37.5,0,61.9
			c1.9,14.3,16.4,35.1,24.5,47.4c3.5-0.9,5.1-1.6,8.6-2.5c-3-11.4-8.6-31.9-14.6-42.1C330.7,316.6,328.8,307.5,332.9,295.1z"/>
		<path class="st14" d="M297.2,179.5c2.8-2.3,8-3.5,11.3-2.1c0.9,0.4,1.7,1,1.8,2c0,1.2-1.3,1.9-2.4,2.3c-3.5,1.2-7.2,1.7-10.9,1.6
			C295.9,182.9,294.5,181.7,297.2,179.5z"/>
		<path class="st12" d="M321.8,234.9c1.1,0.1,2.2,0.1,3.2-0.3c1.6-0.6,2.5-2.1,3.3-3.6c2.6-4.9,4.4-10.2,5.3-15.7
			c0.5-3.3-0.3-7.1-2.8-9.3c-6.4,5.1-10.7,12.7-11.6,20.8c-1.7,0-3.6-0.1-5.4-0.1c-0.6,2.3-1.1,4.8-1.5,7.6
			C315.6,234.4,318.7,234.7,321.8,234.9z"/>
		<g>
			<path class="st14" d="M285.5,224.3c-0.9-1.2-2-2.5-3.4-2.9c-1.5-0.5-3.4,0.2-3.7,1.7c-0.5,2.1,2.4,4.1,1.5,6.2
				c-0.2,0.6-0.8,1-1.1,1.6c-0.6,1.1-0.1,2.4,0.7,3.3c0.8,0.9,2,1.4,3.1,1.8c1.6,0.6,3.2,1.2,4.9,1.1c1,0,2.1-0.4,2.8-1.1
				c1.3-1.5-0.2-3.8-0.9-5.3C288.3,228.4,287,226.3,285.5,224.3z"/>
			<path class="st20" d="M320.6,231c3.1-12.3,2.7-15.3,7-23.4c1.4-2.7,4.2-4.6,7-5.7c2.8-1.1,6.3-1,8.6,0.9c1.8,1.5,2.7,3.9,2.8,6.3
				c0.1,2.4-0.4,4.7-1.1,7c-4.7,15.9-7.1,18.1-16.8,31.5c-13.2-1.2-30.7-4-40-8.9c-1.9-1-2-4.2-0.9-6.1c1.2-2,4.1-2,6.4-1.6
				C301.1,232.4,309.4,231.2,320.6,231z"/>
		</g>
		<polygon class="st20" points="268.4,352.4 284.6,356.8 282.8,362.3 267,358.1 		"/>
		<polygon class="st20" points="344.5,367.2 332.8,372.5 335.4,377.7 346.7,372.5 		"/>
		<path class="st5" d="M279.7,371.1V368c-10.1-0.1-20.2-0.3-30.3-0.4c-0.3,0.3-0.5,0.7-0.5,1.1c0.1,1.1,1.5,1.4,2.5,1.4
			C260.9,370.4,270.3,370.8,279.7,371.1z"/>
		<path class="st5" d="M320.7,386c-0.5,0.3-1,0.8-0.9,1.3c0.1,0.9,1.3,1.2,2.2,1.2c5.9,0.2,15.2,0.4,23.1,0.6
			c2.5,0.1,4.4-1.7,4.9-3.9C340.2,385.7,330.4,385.9,320.7,386z"/>
		<g>
			<g>
				<path class="st14" d="M318.4,187.7c-0.4,3.2,0,8.2,2.2,10.6c1.8,2,4.7,2.6,7.3,2.1c2.6-0.5,4.9-1.9,7.1-3.4
					c3.7-2.7,6.9-5.9,9.6-9.6c2.5-3.4,4.6-7.7,3.3-11.8c-0.9-3-3.5-5.2-6.3-6.5c-3.4-1.7-7.3-2.4-11-1.4
					C321.3,170.1,319.3,179.8,318.4,187.7z"/>
				<path class="st12" d="M342.1,186.3c0.6-2.8,0.1-5.9-1.6-8.3c-1.6-2.4-4.2-4.1-7.1-4.5c-2.6-0.4-5.2,0.1-7.7,0.5
					c-2.6,0.4-5.3,0.5-7.6-0.6c-2.1-1-3.6-2.8-4.5-4.9c-0.9-2.1-1.1-4.4-1.1-6.7c0-1.6,0.2-3.2,0.8-4.7s1.6-2.8,3.1-3.6
					c1.9-1,4.4-0.7,6.1,0.7c1.6,1.4,2.3,3.8,1.6,5.9c1.8-2.6,4.4-4.5,7.3-5.7c1.8-0.7,4-1,5.4,0.3c0.9,0.9,1.1,2.2,0.9,3.4
					c-0.2,1.2-0.8,2.3-1.4,3.3c2.7-2.7,6.8-4,10.6-3.4c0.4,0.1,0.9,0.2,1.2,0.5c0.5,0.5,0.4,1.4,0.1,2.1c-0.7,2-2.2,3.7-4.1,4.7
					c2.8,1.1,5.9,2.3,7.6,4.8c1.4,1.9,1.8,4.4,1.6,6.8c-0.4,4.4-2.8,8.7-6.6,11c-0.9,0.5-1.9,1-2.9,0.8
					C342.8,188.6,341.9,187.3,342.1,186.3z"/>
				<path class="st14" d="M344,184.3c0.6-0.3,1.3-0.5,2-0.3c0.7,0.2,1.2,1,1.3,1.7c0.1,0.8-0.1,1.5-0.4,2.2c-1,2.4-2.9,4.4-5.3,5.4
					c-0.5,0.2-1.1,0.4-1.5,0.1c-1.2-0.8-0.8-4.1-0.3-5.3C340.5,186.5,342.4,185.1,344,184.3z"/>
			</g>
			
				<ellipse transform="matrix(0.9291 0.3699 -0.3699 0.9291 90.5465 -109.237)" class="st12" cx="330.1" cy="181.5" rx="1.5" ry="2.8"/>
			
				<ellipse transform="matrix(0.9291 0.3699 -0.3699 0.9291 89.9592 -106.1739)" class="st12" cx="321.9" cy="181.5" rx="1.5" ry="2.8"/>
			<path class="st21" d="M322.2,187.1c-0.3,0.1-0.7,0.2-1,0.4c-0.3,0.2-0.5,0.5-0.5,0.9c0.1,0.4,0.4,0.6,0.7,0.7
				c1.1,0.4,2.4,0.1,3.2-0.7c0.8-0.8,1.1-2.1,0.9-3.2c-0.1-0.3-0.3-1-0.7-0.7c-0.3,0.2-0.4,0.9-0.6,1.2
				C323.7,186.3,323,186.9,322.2,187.1z"/>
			<g>
				<path class="st21" d="M327.7,193.2c-0.3,0-0.6,0-0.9-0.1c-0.3-0.1-0.4-0.3-0.4-0.6c0.1-0.3,0.3-0.4,0.6-0.4
					c0.8,0.2,1.8,0,2.5-0.5c0.7-0.5,1.2-1.3,1.4-2.1c0-0.3,0.3-0.5,0.6-0.4c0.3,0,0.5,0.3,0.4,0.6c-0.2,1.1-0.9,2.2-1.8,2.8
					C329.3,193,328.5,193.2,327.7,193.2z"/>
			</g>
		</g>
	</g>
	<path class="st18" d="M268.6,112.8c-2.3,2.5-7.1,5.7-10.4,6.8c-8,12.6-1.8,14.2,4.8,10.6c2.6-1.4,5.2-2.8,7.8-4.3
		c0.4-0.2,0.9-0.5,1.1-0.9c0.4-0.6,0.1-1.4-0.1-2.1C270.7,119.7,271.1,115,268.6,112.8z"/>
	<path class="st14" d="M238.2,216.4c-1.6,2.3-3.1,4.7-4.3,7.2c-0.3,0.5-0.5,1.1-0.4,1.7c0.2,0.5,0.7,0.9,1.2,1c0.5,0.1,1.1,0,1.7,0
		c-0.8,2.8-1.8,7.2-1.7,7.9c0.1,0.6,0.6,1.3,1.3,1.3c0.8,0.1,3-3,4.7-6c1.3-0.5,2.6-1.1,3.7-1.8c1.1-0.8,2.1-1.8,2.5-3.1
		c0.6-1.9-0.1-4.1-1.2-5.8c-0.7-1-1.6-2-2.7-2.6C241.8,215.5,239.4,216.2,238.2,216.4z"/>
	<path class="st3" d="M267.3,134.8c1.8,28.9-7.8,60.5-20.9,86.5c-3.4,0.4-6.5,0.1-9.7-1c1.6-22.7,6.1-45.1,12-67
		c1-3.7,2.1-7.6,4.6-10.5C255.7,139.8,263.7,133.3,267.3,134.8z"/>
	<g>
		<g>
			<path class="st14" d="M281.5,133.1c-2.7,2-7.6,4.3-11.1,3.8c-2.9-0.4-5.2-2.6-6.3-5c-1.1-2.4-1.2-5.2-1-7.8
				c0.3-4.5,1.4-9,3.2-13.2c1.7-3.9,4.4-8,8.9-9.1c3.3-0.8,6.9,0.2,9.8,1.8c3.6,2,6.6,5,7.9,8.6
				C296.1,121.3,288.2,128.1,281.5,133.1z"/>
			<path class="st12" d="M266,111.1c5.4,1.6,9.7,0.7,12.4-4.5c1.3,6.2,13.1,27.3,24.4,17.2c-5.6-2.9-5.2-8.7-7.1-14.4
				c-0.7-2.3-1.9-4.5-3.7-6.2c-1.8-1.7-4.5-2.8-7.1-2.4c1.5-0.5,2.9-1.2,4.3-2c0.5-0.3,1-0.6,1-1.1c0-0.7-0.9-1.2-1.7-1.3
				c-2-0.3-4.1,0.2-5.6,1.4c-0.5-2.1-2-3.9-3.9-5.1c-0.5-0.3-1-0.5-1.6-0.6c-0.6,0-1.2,0.1-1.5,0.6c-0.3,0.4-0.2,0.9-0.2,1.3
				c0.3,1.7,1.1,3.3,2.3,4.6c-3.8-0.6-7.5,1.4-9.8,4.1s-3.4,6.1-4.5,9.4C264.3,112,265.5,111.3,266,111.1z"/>
			<path class="st14" d="M269.3,109.6c-0.1-0.7-0.3-1.4-0.9-1.8c-0.7-0.5-1.6-0.5-2.4-0.2c-0.8,0.3-1.4,0.9-1.8,1.5
				c-1.6,2.1-2.3,4.8-1.9,7.3c0.1,0.5,0.3,1.1,0.8,1.3c1.5,0.6,4.3-1.5,5.1-2.6C269.3,113.7,269.6,111.4,269.3,109.6z"/>
		</g>
		<path class="st12" d="M278.8,118.9c-1,1.3-1.2,2.7-0.4,3.2c0.8,0.5,2.2-0.1,3.2-1.4c1-1.3,1.2-2.7,0.4-3.2
			C281.2,117,279.8,117.7,278.8,118.9z"/>
		<path class="st12" d="M283.7,126c-1,1.3-1.2,2.7-0.4,3.2s2.2-0.1,3.2-1.4c1-1.3,1.2-2.7,0.4-3.2
			C286.2,124.1,284.7,124.7,283.7,126z"/>
		<path class="st21" d="M279.7,129.6c0.1,0.3,0.2,0.7,0.2,1c0,0.3-0.2,0.7-0.5,0.9c-0.4,0.1-0.8,0-1.1-0.2c-1-0.7-1.5-2-1.2-3.1
			c0.3-1.1,1.3-2,2.4-2.5c0.3-0.1,1.1-0.3,1.1,0.2c0,0.3-0.6,0.8-0.7,1.1C279.6,127.8,279.5,128.8,279.7,129.6z"/>
		<g>
			<path class="st21" d="M270.8,128.2c0.2,0.3,0.4,0.5,0.6,0.7c0.2,0.2,0.6,0.2,0.8,0c0.2-0.2,0.2-0.5,0-0.7
				c-0.7-0.6-1.1-1.5-1.1-2.4c0-0.9,0.4-1.7,1.1-2.3c0.2-0.2,0.2-0.5,0-0.7c-0.2-0.2-0.6-0.2-0.8,0c-0.9,0.8-1.5,1.9-1.5,3
				C270,126.6,270.3,127.5,270.8,128.2z"/>
		</g>
	</g>
	<g>
		<path class="st12" d="M162.5,328c2.3-0.3,4.6-0.6,6.8-0.3c2.3,0.3,4.5,1.5,5.7,3.4c1.4,2.4,1.1,5.4,0.3,8.1
			c-1.4,5.1-3.9,9.9-6.5,14.6c-6,11-12.2,21.8-18.5,32.6c-1.9,0-4.1,0.2-5.9-0.4c-1.8-0.6-3.5-1.9-4-3.8c-0.4-1.3-0.1-2.7,0.2-4
			c2.3-11.7,4.6-23.4,6.9-35.1c0.7-3.8,1.5-7.7,3.9-10.7C153.7,329.4,159.1,326.2,162.5,328z"/>
		<path class="st19" d="M170.4,350.9c-0.2-0.4-0.5-0.7-0.6-1.1c-2.4-4.6-3.8-9.6-4.2-14.8c-0.2-2.5-0.1-4.9,0.2-7.4
			c-1.1,0.1-2.2,0.2-3.3,0.4c-0.5-0.3-1-0.4-1.6-0.5c-1.9,0.5-3.8,1-5.6,1.5c-1.6,0.9-3,2.1-4,3.4c-1.7,2.2-2.6,4.8-3.2,7.4
			c1.4,1.9,2.7,3.9,4.1,5.8c3.8,5.4,8.2,10.3,13,14.7c1.2-2.2,2.4-4.4,3.6-6.6C169.3,352.9,169.9,351.9,170.4,350.9z"/>
		<path class="st19" d="M162.8,357.6c-2-3.3-4.1-6.6-6.6-9.5c-2.2-2.5-5.5-4.9-8.6-3.9c-0.1,0-0.3,0.1-0.4,0.2
			c-1.1,5.6-2.2,11.2-3.3,16.9c0.6,0.2,1.1,0.3,1.6,0.5c3.5,1.7,6.1,5.1,7.6,8.7c1,2.5,1.6,5.1,1.9,7.7c3.3-5.7,6.6-11.5,9.8-17.3
			C164.2,359.8,163.5,358.7,162.8,357.6z"/>
		<path class="st1" d="M93.7,287.5c14.2,16.3,30.4,30.8,48.2,43c-1.7,2.1-3.6,4.5-6.3,4.8c-2.2,0.3-4.3-0.9-6.3-2
			c-8.9-5-17.9-10.2-25-17.4C97.2,308.6,93.1,297.7,93.7,287.5z"/>
		<path class="st2" d="M93.7,287.5c-0.6,10.2,3.5,21.1,10.6,28.4c2.3,2.3,4.8,4.4,7.3,6.4c0.1-1.9,0.1-3.9,0-5.8
			c-0.1-3.6-0.3-7.2-0.6-10.8C105.1,299.9,99.2,293.9,93.7,287.5z"/>
		<path class="st1" d="M77.1,283c-4.9,1.9-9.8,3.8-14.6,5.9c-1.8,0.8-3.6,1.7-4.6,3.2c-1.3,2-0.6,4.5,0.2,6.7
			c6.1,18.6,13,37,20.6,55.3c0.5,1.1,6.9,17.1,8.1,17.3c6.6,1,8-13.9,14.7-14.4c1.8-0.1,3.7-0.4,5.1-1.3c1.8-1.2,2.4-3.2,2.9-5.1
			c2.1-8.6-5.9-51.9-11.3-60.1C92.9,282.3,87,279.2,77.1,283z"/>
		<path class="st2" d="M106.9,337.4c0.8,0.3,1.8,0.5,2.6,0.5c-0.4-3.8-1-8.1-1.8-12.6c-4.4-0.6-8.7-1.8-12.9-3.4
			c-2.5-1-4.9-2.1-7.2-3.3c-8-4.2-15.2-9.8-22-15.7c2.6,4.9,5.3,9.8,9,14c3.3,3.7,7.4,6.6,11.5,9.4
			C92.7,330.6,99.4,334.8,106.9,337.4z"/>
		<path class="st18" d="M81.5,274.1c-0.9,3.8-1,7.8-0.4,11.6c0.3,1.9-1.2,3.6-3.2,3.5c-1.5-0.1-3.1-0.3-4.6-0.7
			c-0.6-0.1-1.2-0.3-1.6-0.7c-0.6-0.6-0.8-1.4-0.9-2.3c-0.6-3.7-1.2-7.5-1.9-11.2c-0.2-1.1-0.3-2.2,0.2-3.1c0.7-1.3,2.4-1.5,3.9-1.6
			c1.6-0.1,3.2,0,4.7,0.7C79,271,81.8,272.6,81.5,274.1z"/>
		<g>
			<path class="st14" d="M92.2,264.6c0.9,3.3,1.3,8.7-0.4,11.8c-1.4,2.5-4.3,3.9-7,4.1c-2.7,0.2-5.3-0.7-7.7-1.8
				c-4.1-1.9-7.9-4.5-11.2-7.7c-3.1-3-5.9-7-5.3-11.6c0.4-3.4,2.7-6.3,5.2-8.5c3.1-2.6,7-4.4,10.8-4.3
				C86.4,246.7,89.9,256.5,92.2,264.6z"/>
			<path class="st12" d="M78,262c0.8,1.4,2.1,2.1,2.8,1.6c0.7-0.5,0.7-2.1-0.1-3.5c-0.8-1.4-2.1-2.1-2.8-1.6
				C77.1,259.1,77.2,260.6,78,262z"/>
			<path class="st12" d="M86.3,259.9c0.8,1.4,2.1,2.1,2.8,1.6s0.7-2.1-0.1-3.5c-0.8-1.4-2.1-2.1-2.8-1.6S85.5,258.5,86.3,259.9z"/>
			<path class="st21" d="M88.3,265c0.4,0,0.7,0,1,0.2s0.6,0.4,0.6,0.8c0,0.4-0.3,0.7-0.6,0.9c-1,0.7-2.4,0.7-3.3,0
				c-0.9-0.7-1.5-1.9-1.4-3.2c0-0.4,0.1-1.1,0.6-1c0.3,0.1,0.5,0.8,0.8,1.1C86.6,264.5,87.4,264.9,88.3,265z"/>
			<g>
				<path class="st21" d="M83.8,272.8c0.3-0.1,0.6-0.2,0.9-0.3c0.3-0.1,0.4-0.5,0.3-0.7c-0.1-0.3-0.4-0.4-0.7-0.2
					c-0.8,0.4-1.8,0.5-2.6,0.2c-0.8-0.3-1.5-1-1.8-1.9c-0.1-0.3-0.4-0.4-0.6-0.3c-0.3,0.1-0.4,0.4-0.3,0.7c0.4,1.1,1.2,2.1,2.3,2.5
					C82,273,82.9,273,83.8,272.8z"/>
			</g>
			<path class="st12" d="M66.8,271.7c1.7-2,2.6-4.6,2.7-7.2c0.1-2.6-0.6-5.3-2.1-7.4c5.8-0.8,11.3-2.3,16.8-4.3c2.4-0.9,4.9-2,6-4.3
				c0.8-1.7,0.8-3.6,0.4-5.5c-1.3-5.5-5.4-9.8-9.8-13.3c0.8,2.3,1.5,4.6,2.3,6.9c-2.2-2.3-4.8-4.2-7.6-5.6c1.5,3.1,2.8,6.4,3.7,9.8
				c-5.4-0.5-11.1,0.1-15.8,2.7c-4.8,2.6-8.4,7.5-8.5,13c0,3.4,1.3,6.7,3.4,9.3C60.2,268.4,63.8,270.2,66.8,271.7z"/>
			<path class="st14" d="M65.9,267.5c-0.7-0.2-1.4-0.2-2,0.2c-0.7,0.4-1.1,1.3-1,2.2c0,0.8,0.4,1.6,0.8,2.3c1.4,2.3,3.6,3.9,6.2,4.4
				c0.5,0.1,1.1,0.1,1.5-0.3c1.1-1.1,0.2-4.6-0.6-5.7C69.8,269,67.6,267.9,65.9,267.5z"/>
		</g>
		<path class="st2" d="M66.3,322.1c7.1,5.8,14.6,11.1,22.8,15.1c6.6,3.3,13.6,5.7,20.8,7c-0.1-2.7-0.4-6-0.9-9.6
			c-3.2-1.1-6.4-2.4-9.5-3.7c-13.9-6-26.9-14-38.6-23.7C62.7,312.2,64.5,317.1,66.3,322.1z"/>
		<path class="st1" d="M72.7,300.9c2.1,8.8,9.7,16.2,18.6,20.9c9,4.7,19.3,7.1,29.6,9c0.6,0.9,1,1.7,1.2,2.7c0.2,1-0.1,2.2-1,2.8
			c-0.8,0.5-1.8,0.6-2.8,0.6c-13.1,0.2-26.2-3.2-37-9.7c-10.7-6.5-18.9-15.9-23.2-26.4c-0.6-1.6-1.2-3.2-1.1-4.9
			c0.1-1.7,0.8-3.4,2.4-4.4c2.6-1.7,6.5-0.8,8.8,1.2C70.5,294.6,72,298.2,72.7,300.9z"/>
		<path class="st22" d="M170.8,318.8c0.4,1.9,0.4,7.2,0.7,9.6c-18.2,6.6-37.2,9.2-56.7,14.6c-3.1,0.9-6.2,1.7-9.2,2.6
			c-1.1,0.3-2.4,0.6-3.4,0.1c-1-0.5-1.3-2.3-0.2-2.8c19.8-8.1,38.8-18.2,59.1-24.9c1.5-0.5,3.1-1,4.7-1
			C167.4,317,170.5,317.2,170.8,318.8z"/>
		<g>
			<path class="st22" d="M124.7,297.5l47.2-7c2.4-0.3,4.4,1.7,3.9,4.1c-2.1,11.2-3.5,22.4-4.3,33.8c-16.7,2.2-32.7,4.2-52,7.2
				c1.3-13,1.9-23.4,2.2-34.7C121.8,299.2,123,297.8,124.7,297.5z"/>
			<ellipse transform="matrix(0.9851 0.1717 -0.1717 0.9851 56.0044 -21.1673)" class="st23" cx="150.4" cy="313.1" rx="5" ry="6"/>
		</g>
		<path class="st12" d="M92.2,376.6c5.7,2.1,12.7,1.5,18.5-0.4c13.4-4.4,24.1-14.4,34.3-24.2c7.1,10.2,15.6,20,22.7,30.2
			c1.5,2.2,3.2,4.5,5.7,5.4c2.5,1,8.9-6.7,8.6-8.8c-0.3-2-1.3-3.9-2.2-5.7c-5.9-11-12.6-21.5-19.7-31.8c-2.7-3.9-5.7-8-10.2-9.4
			c-4.7-1.5-9.7,0.4-14.3,2.1c-14.8,5.6-26.8,7.4-43.2,12.5C73.4,352.5,82.9,373.3,92.2,376.6z"/>
		<path class="st9" d="M201.5,383.9c0.6,0.1,1.4,0.4,1.6,1c0.2,0.8-0.7,1.4-1.4,1.7c-7.4,3.1-15.4,4.2-23.3,5.3c-1,0.1-2,0.3-3-0.2
			c-1.1-0.5-1.7-1.6-2.1-2.7c-0.5-1.1-0.9-2.3-0.7-3.5c0.3-1.7,1.6-2.9,3.1-3.7c1.1-0.6,3-1.8,4.3-1.9c1.4-0.1,3.2,0.6,4.6,0.9
			c3.6,0.6,7.3,1.3,10.9,2C197.6,383.2,199.6,383.5,201.5,383.9z"/>
		<path class="st9" d="M137.8,387.3c-0.3,1.1-0.6,2.3-0.1,3.3c0.4,0.9,1.3,1.6,2.2,1.9c0.9,0.3,2,0.4,3,0.4c5.3,0.2,10.7,0.2,16,0.2
			c1.5,0,3,0,4.5-0.3c0.8-0.1,1.8-0.6,1.7-1.5c-0.1-0.6-0.7-0.9-1.2-1.2c-4-1.8-8.1-3.5-12.2-5.1c-2.1-0.8-4.2-1.6-6.3-2.3
			c-1.2-0.4-3.5-1.7-4.8-1.2C139,382.2,138.2,385.8,137.8,387.3z"/>
	</g>
</g>
</svg>
